<?xml version="1.0" encoding="UTF-8"?>
<svg width="16px" height="16px" viewBox="0 0 16 16" version="1.1" xmlns="http://www.w3.org/2000/svg" xmlns:xlink="http://www.w3.org/1999/xlink">
    <!-- Generator: Sketch 51.2 (57519) - http://www.bohemiancoding.com/sketch -->
    <title>购物车-2</title>
    <desc>Created with Sketch.</desc>
    <defs></defs>
    <g id="Symbols" stroke="none" stroke-width="1" fill="none" fill-rule="evenodd" opacity="0.8">
        <g id="顶部" transform="translate(-1441.000000, -242.000000)" fill="#FFFFFF" fill-rule="nonzero">
            <g id="Group-5" transform="translate(1422.000000, 223.000000)">
                <g id="购物车-2" transform="translate(19.000000, 19.000000)">
                    <g id="Group-3">
                        <path d="M15.1578947,2.84195656 C15.1560691,2.48455499 14.8732941,2.1961967 14.5259608,2.19754526 L3.91562379,2.19754526 C3.83846631,2.19754526 3.76367562,2.21167068 3.69551198,2.23797318 L3.12748144,0.441122645 C3.02756064,0.140100524 2.7310498,-0.0427171624 2.42596373,0.00859260776 L2.399929,0.00810553545 L0.631460612,0.00810553545 C0.282595195,0.00810553545 0,0.296458888 0,0.652516818 C0,1.00808768 0.282595195,1.29595394 0.631460612,1.29595396 L2.07094464,1.29595396 L4.59726044,9.28509534 L2.75068785,11.6114055 C2.53104938,11.8880689 2.52962931,12.2533814 2.80039052,12.4769526 C2.97127304,12.6182068 3.12274785,12.6337935 3.43090441,12.6313581 L14.1472738,12.6313581 C14.4946071,12.6327066 14.7773821,12.3443483 14.7792077,11.9869468 C14.7792077,11.6313759 14.4966125,11.3425355 14.1472738,11.3425355 L4.58873998,11.3425355 L5.61119493,10.0551741 L12.5056655,10.0551741 C12.8497973,10.0551741 13.1295524,9.77363994 13.1361794,9.423427 C13.1369524,9.42153041 13.1375854,9.41957654 13.1380728,9.41758201 L15.1223928,3.30322451 C15.156948,3.195092 15.1626283,3.08403699 15.1432206,2.97931406 C15.1526878,2.93596365 15.1578947,2.88920364 15.1578947,2.84195656 Z" id="Shape"></path>
                        <path d="M1.68421053,14.7368421 C1.68421052,15.1881249 1.92496705,15.6051275 2.31578947,15.8307689 C2.70661188,16.0564104 3.18812496,16.0564104 3.57894738,15.8307689 C3.96976979,15.6051275 4.21052633,15.1881249 4.21052632,14.7368421 C4.21052632,14.2855593 3.96976979,13.8685567 3.57894737,13.6429153 C3.18812496,13.4172739 2.70661188,13.4172739 2.31578947,13.6429153 C1.92496705,13.8685567 1.68421052,14.2855593 1.68421053,14.7368421 Z" id="Shape"></path>
                        <path d="M11.7894737,14.7368421 C11.7894737,15.434465 12.3550087,16 13.0526316,16 C13.7502544,16 14.3157895,15.434465 14.3157895,14.7368421 C14.3157895,14.2855593 14.075033,13.8685567 13.6842105,13.6429153 C13.2933881,13.4172739 12.811875,13.4172739 12.4210526,13.6429153 C12.0302302,13.8685567 11.7894737,14.2855593 11.7894737,14.7368421 Z" id="Shape"></path>
                    </g>
                </g>
            </g>
        </g>
    </g>
</svg>