<?xml version="1.0" encoding="UTF-8"?>
<svg width="26px" height="26px" viewBox="0 0 26 26" version="1.1" xmlns="http://www.w3.org/2000/svg" xmlns:xlink="http://www.w3.org/1999/xlink">
    <!-- Generator: Sketch 49.1 (51147) - http://www.bohemiancoding.com/sketch -->
    <title>综合</title>
    <desc>Created with Sketch.</desc>
    <defs></defs>
    <g id="Page-1" stroke="none" stroke-width="1" fill="none" fill-rule="evenodd">
        <g id="b-KMER-RECOMMEND-未登录" transform="translate(-592.000000, -829.000000)">
            <g id="Group" transform="translate(343.000000, 810.000000)">
                <polygon id="Rectangle-7" fill="#FFFFFF" points="1.77796247e-14 5.68434189e-14 861 0 861 89 1.77796247e-14 89"></polygon>
                <g id="Group-4" transform="translate(233.000000, 17.000000)" fill-rule="nonzero">
                    <g id="综合" transform="translate(16.000000, 2.000000)">
                        <path d="M12,12 L3.22618335,12 C1.44519918,11.9980998 0.0019002248,10.5548354 0,8.77389389 L0,3.22639341 C0.00174189765,1.44533968 1.44508714,0.00190046084 3.22618335,0 L8.77410396,0 C10.555088,0.00205877423 11.9982584,1.44545171 12,3.22639341 L12,12 Z" id="Shape" fill="#29ABE2"></path>
                        <path d="M22.7878947,12 L14,12 L14,3.22639341 C14.0017344,1.44500354 15.4387918,0.00142540123 17.2118194,0 L22.7878947,0 C24.561034,0.0012670082 25.9982653,1.44489146 26,3.22639341 L26,8.77418119 C25.9979501,10.5554587 24.5608109,11.9987335 22.7878947,12" id="Shape" fill="#FEC000"></path>
                        <path d="M8.87941042,26 L3.26501079,26 C1.46270567,25.998109 0.00208330668,24.5617939 0,22.7893244 L0,17.2106756 C0.00208330668,15.4382061 1.46270567,14.001891 3.26501079,14 L12.1444212,14 L12.1444212,22.7893244 C12.1423379,24.5617939 10.6817155,25.998109 8.87941042,26 Z M17.0638902,26 C15.2612445,25.9985818 13.8000913,24.5621284 13.7980071,22.7893244 L13.7980071,14 L22.7338261,14 C24.5365854,14.0012606 25.9979156,15.43776 26,17.2106756 L26,22.7893244 C25.9979156,24.56224 24.5365854,25.9987394 22.7338261,26 L17.0638902,26 Z" id="Shape" fill="#29ABE2"></path>
                    </g>
                </g>
            </g>
        </g>
    </g>
</svg>