<?xml version="1.0" encoding="UTF-8"?>
<svg width="22px" height="21px" viewBox="0 0 22 21" version="1.1" xmlns="http://www.w3.org/2000/svg" xmlns:xlink="http://www.w3.org/1999/xlink">
    <!-- Generator: Sketch 49.1 (51147) - http://www.bohemiancoding.com/sketch -->
    <title>Shape</title>
    <desc>Created with Sketch.</desc>
    <defs>
        <filter x="-1.3%" y="-3.9%" width="102.7%" height="110.3%" filterUnits="objectBoundingBox" id="filter-1">
            <feOffset dx="0" dy="2" in="SourceAlpha" result="shadowOffsetOuter1"></feOffset>
            <feGaussianBlur stdDeviation="2.5" in="shadowOffsetOuter1" result="shadowBlurOuter1"></feGaussianBlur>
            <feColorMatrix values="0 0 0 0 0.898039216   0 0 0 0 0.898039216   0 0 0 0 0.917647059  0 0 0 1 0" type="matrix" in="shadowBlurOuter1" result="shadowMatrixOuter1"></feColorMatrix>
            <feMerge>
                <feMergeNode in="shadowMatrixOuter1"></feMergeNode>
                <feMergeNode in="SourceGraphic"></feMergeNode>
            </feMerge>
        </filter>
    </defs>
    <g id="Symbols" stroke="none" stroke-width="1" fill="none" fill-rule="evenodd">
        <g id="eventlist2-copy-6" transform="translate(-254.000000, -131.000000)" fill="#8E8E93" fill-rule="nonzero">
            <g id="eventlist" filter="url(#filter-1)">
                <g id="Group" transform="translate(182.000000, 132.000000)">
                    <path d="M87.5693763,2 L78.1750279,2 C77.5228874,2 77,2.51523387 77,3.15342127 L77,13.5576324 L79.3500559,11.2449349 L87.5693763,11.2449349 C88.2215168,11.2449349 88.7444042,10.7297011 88.7444042,10.0915137 L88.7444042,3.15342127 C88.7385291,2.51523387 88.2215168,2 87.5693763,2 Z M81.1125978,7.1991781 L79.9375698,7.1991781 L79.9375698,6.04575683 L81.1125978,6.04575683 L81.1125978,7.1991781 Z M83.4567785,7.1991781 L82.2817506,7.1991781 L82.2817506,6.04575683 L83.4567785,6.04575683 L83.4567785,7.1991781 Z M85.8068344,7.1991781 L84.6318064,7.1991781 L84.6318064,6.04575683 L85.8068344,6.04575683 L85.8068344,7.1991781 Z" id="Shape"></path>
                </g>
            </g>
        </g>
    </g>
</svg>