<?xml version="1.0" encoding="UTF-8"?>
<svg width="30px" height="30px" viewBox="0 0 30 30" version="1.1" xmlns="http://www.w3.org/2000/svg" xmlns:xlink="http://www.w3.org/1999/xlink">
    <!-- Generator: Sketch 49.1 (51147) - http://www.bohemiancoding.com/sketch -->
    <title>餐厅</title>
    <desc>Created with Sketch.</desc>
    <defs></defs>
    <g id="Page-1" stroke="none" stroke-width="1" fill="none" fill-rule="evenodd">
        <g id="b-KMER-RECOMMEND-未登录" transform="translate(-707.000000, -827.000000)">
            <g id="Group" transform="translate(343.000000, 810.000000)">
                <polygon id="Rectangle-7" fill="#FFFFFF" points="1.77796247e-14 5.68434189e-14 861 0 861 89 1.77796247e-14 89"></polygon>
                <g id="Group-4" transform="translate(233.000000, 17.000000)" fill="#000000" fill-rule="nonzero">
                    <g id="餐厅" transform="translate(131.000000, 0.000000)">
                        <path d="M4.59846571,10.6441643 L6.65260267,12.5115615 C8.89347936,14.3789588 11.8813149,14.5656985 13.5619725,12.6983012 C15.0558903,11.0176437 14.6824108,8.21654786 12.6282738,6.34915062 L10.5741369,4.48175338 L6.46586295,0.746958896 C6.0923835,0.373479448 5.53216433,0.373479448 5.15868488,0.746958896 C4.59846571,1.30717807 4.59846571,1.86739724 4.97194515,2.24087669 L9.08021909,5.97567117 L8.14652046,6.90936979 L4.03824653,3.17457531 C3.66476709,2.80109586 3.10454791,2.80109586 2.73106847,3.17457531 C2.35758902,3.73479448 2.35758902,4.29501365 2.73106847,4.48175338 L6.8393424,8.21654786 L5.71890405,9.33698621 L1.61063012,5.60219172 C1.23715067,5.22871228 0.6769315,5.22871228 0.303452052,5.60219172 C-0.0700273965,5.97567117 -0.0700273965,6.53589034 0.303452052,6.90936979 L4.59846571,10.6441643 Z M28.8746298,0 L3.29128764,25.3966025 C3.29128764,25.3966025 1.79736984,27.07726 3.29128764,28.3844381 C4.59846571,29.5048764 6.27912322,28.3844381 6.27912322,28.3844381 L17.1100272,16.0596163 L20.0978628,17.7402738 C30.9287668,7.65632869 28.8746298,0 28.8746298,0 Z" id="Shape"></path>
                        <path d="M29.2481093,26.3303011 L21.5917806,18.6739724 L20.2846025,19.607671 L18.2304656,18.300493 L17.2967669,19.2341916 L26.2602737,29.3181367 C26.2602737,29.3181367 28.1276709,30.438575 29.434849,29.3181367 C30.7420271,28.0109586 29.2481093,26.3303011 29.2481093,26.3303011 Z" id="Shape"></path>
                    </g>
                </g>
            </g>
        </g>
    </g>
</svg>