<?xml version="1.0" encoding="UTF-8"?>
<svg width="30px" height="29px" viewBox="0 0 30 29" version="1.1" xmlns="http://www.w3.org/2000/svg" xmlns:xlink="http://www.w3.org/1999/xlink">
    <!-- Generator: Sketch 49.1 (51147) - http://www.bohemiancoding.com/sketch -->
    <title>酒吧娱乐</title>
    <desc>Created with Sketch.</desc>
    <defs></defs>
    <g id="Page-1" stroke="none" stroke-width="1" fill="none" fill-rule="evenodd">
        <g id="b-KMER-RECOMMEND-未登录" transform="translate(-822.000000, -827.000000)">
            <g id="Group" transform="translate(343.000000, 810.000000)">
                <polygon id="Rectangle-7" fill="#FFFFFF" points="1.77796247e-14 5.68434189e-14 861 0 861 89 1.77796247e-14 89"></polygon>
                <g id="Group-4" transform="translate(233.000000, 17.000000)" fill="#000000" fill-rule="nonzero">
                    <g id="酒吧娱乐" transform="translate(246.000000, 0.000000)">
                        <path d="M6.79507474,26.5259344 L9.32249682,27.9109332 L9.32249682,28.7368421 L8.90312894,28.5078882 L8.90312894,28.7368421 L6.10246019,27.2018517 L3.42895343,28.7368421 L3.42895343,28.4968334 L3.01111982,28.7368421 L3.01111982,27.9109332 L5.61861633,26.4123021 L5.61861633,17.3792352 L0,16.9781067 L0.0816452274,15.8379278 L0.546566395,15.8709818 L0.546566395,6.72274015 L5.28085715,7.08427731 L5.28085715,1.85711987 C2.58075632,1.83501043 0.442856865,1.56664878 0.442856865,1.23816561 C0.442856865,0.90964571 2.58079285,0.641137159 5.28085715,0.618990988 L5.28085715,0 L5.95630245,0 L5.95630245,0.620533508 C8.654869,0.641137159 10.7927685,0.90964571 10.7927685,1.23812888 C10.7927685,1.56661206 8.654869,1.8349737 5.95630245,1.85708315 L5.95630245,7.13646588 L11.3691071,7.5500447 L11.3691071,10.6200622 C8.94550409,11.9767448 7.27727474,14.5318547 7.16110838,17.4912148 L6.79503821,17.4644411 L6.79503821,26.5259344 L6.79507474,26.5259344 Z M25.2893078,17.3744975 L25.2861662,17.3744975 L30,16.9781067 L29.919889,15.8395071 L29.4581095,15.8725611 L29.4581095,6.72274015 L22.3048551,7.31484723 L22.1855106,7.39854727 L22.1383135,7.32906044 L19.455528,7.5516974 L19.455528,10.697482 C21.811623,12.0730053 23.4231938,14.5934452 23.5363647,17.500727 L24.5305734,17.4296977 L24.5305734,26.1153304 L21.9231865,27.6140349 L21.9231865,28.4400173 L24.8007881,26.784894 L27.8166203,28.4400173 L27.8166203,27.6140349 L25.2893078,26.2290361 L25.2893078,17.3744975 Z M18.9213819,24.5155909 L19.0847454,24.5155909 L19.0847454,28.6230997 L17.9695483,28.6230997 L17.9695483,24.9657862 C17.1324199,25.2926534 16.222925,25.4725773 15.2679132,25.4725773 C14.3804461,25.4725773 13.5258196,25.3146894 12.7342079,25.0304986 L12.7342079,28.6230997 L11.6189013,28.6230997 L11.6189013,24.5187494 C9.32563843,23.2301581 7.7720777,20.7682605 7.7720777,17.9398676 C7.7720777,13.778591 11.1288472,10.405395 15.2663059,10.405395 C19.4067601,10.405395 22.7618857,13.7769751 22.7618857,17.9398676 C22.7650273,20.7650285 21.2147909,23.2285789 18.9213819,24.5155909 Z M18.2523294,17.9398676 C18.2523294,16.2847443 16.915503,14.9393369 15.2694475,14.9393369 C13.6247802,14.9393369 12.2865291,16.2847443 12.2865291,17.9398676 C12.2865291,19.5916487 13.6247802,20.9385987 15.2694475,20.9385987 C16.9139687,20.9372765 18.2523294,19.5916487 18.2523294,17.9398676 Z M30,5.95041539 L29.8901168,5.274645 L23.836315,6.26784384 L29.2067445,2.59624374 L28.8235416,2.02929442 L22.2388814,6.52841943 L21.508458,6.64851558 L21.6184873,7.3243227 L22.0849792,7.24855562 L22.1367792,7.32748119 L22.3048917,7.31484723 L22.5013151,7.18064804 L30,5.95041539 Z" id="Shape"></path>
                    </g>
                </g>
            </g>
        </g>
    </g>
</svg>