<?xml version="1.0" encoding="UTF-8"?>
<svg width="30px" height="15px" viewBox="0 0 30 15" version="1.1" xmlns="http://www.w3.org/2000/svg" xmlns:xlink="http://www.w3.org/1999/xlink">
    <!-- Generator: Sketch 49.1 (51147) - http://www.bohemiancoding.com/sketch -->
    <title>操作 夜店</title>
    <desc>Created with Sketch.</desc>
    <defs></defs>
    <g id="Page-1" stroke="none" stroke-width="1" fill="none" fill-rule="evenodd">
        <g id="b-KMER-RECOMMEND-未登录" transform="translate(-939.000000, -834.000000)">
            <g id="Group" transform="translate(343.000000, 810.000000)">
                <polygon id="Rectangle-7" fill="#FFFFFF" points="1.77796247e-14 5.68434189e-14 861 0 861 89 1.77796247e-14 89"></polygon>
                <g id="Group-4" transform="translate(233.000000, 17.000000)">
                    <g id="操作-夜店" transform="translate(378.000000, 14.500000) scale(-1, 1) translate(-378.000000, -14.500000) translate(363.000000, 7.000000)">
                        <path d="M17.4134641,13.5017351 C15.4819524,12.2920866 14.5332778,12.2920866 12.5933287,13.5017351 L12.5849287,13.5017351 C11.9304415,13.9183532 11.2919668,14.3098521 10.5720796,14.4896915 L10.5226171,14.5064251 C9.65528001,14.7021746 8.78798039,14.7515144 7.80589333,14.4654334 C6.88905622,14.1960486 5.91529417,13.6405829 4.82674464,12.6275448 L4.77814466,12.5949386 C4.10689497,11.973362 3.56723269,11.2221468 3.10887039,10.3889107 C1.88127094,8.19134326 1.39853364,5.65071821 0.179221681,3.45311329 C0.00743427506,3.19963853 -0.0503907127,2.86500389 0.0476342309,2.5462793 C0.211884147,1.94143633 0.849608879,1.56584742 1.45545862,1.74568685 C2.51970817,2.04767784 4.13955743,1.27138094 5.00693206,0.887369081 C6.61080635,0.177145576 7.92060576,-0.39505378 10.4823421,0.372895052 C10.8334545,0.479136594 11.2348543,0.617984309 11.6278916,0.740996867 C14.4184154,1.67205152 15.5723274,1.67205152 18.3787886,0.740996867 C18.7885509,0.602111709 19.1975258,0.470788493 19.5084006,0.372895052 C22.070137,-0.411001229 23.3874739,0.177145613 24.9746607,0.887369081 C25.9324852,1.29642517 27.4140721,2.02338228 28.5017966,1.74568685 C28.8051715,1.67201408 29.1244838,1.68796153 29.4101962,1.8519284 C29.966621,2.15391938 30.1636084,2.86500389 29.8526585,3.42043223 C28.6082216,5.62563653 28.1339218,8.18295775 26.9062473,10.3889107 C26.4478475,11.2221468 25.8914228,11.9574894 25.2202106,12.5949386 C24.1073611,13.6238867 23.1252365,14.1960861 22.2008994,14.4654709 C21.2103748,14.7515518 20.3430752,14.702212 19.4841006,14.5064626 C18.7232635,14.3424957 18.0930762,13.9342632 17.4134641,13.5017351 Z" id="Path" fill="#000000"></path>
                        <path d="M22.012387,4.44938029 C22.6341742,4.58830289 25.2697481,5.66659077 24.6638233,6.79429331 C23.9766736,8.11770789 21.9311246,9.00024633 20.1470253,9.39178265 C19.4514757,9.56409758 18.7886259,9.65364292 18.2649012,9.65364292 C17.6590514,9.66951552 17.1520517,9.56413499 16.8403143,9.35917644 L16.8243768,9.34322899 L16.7673769,9.30227472 C15.8916773,8.5753176 16.7338519,6.71230988 17.2827391,6.03469255 C17.8224014,5.35625165 18.5916761,4.85851123 19.4263507,4.58830286 C20.2450503,4.31057002 21.1618499,4.2695783 22.012387,4.44938029 Z" id="Path" fill="#FFFFFF"></path>
                        <path d="M7.98604321,4.44938029 C8.83744283,4.2695783 9.75337993,4.31057002 10.5880546,4.58830289 C11.4151167,4.85851127 12.1759914,5.35625172 12.7165536,6.03469258 C13.1908159,6.62280198 14.123478,8.55858403 13.2234784,9.30227475 C12.9285035,9.54736401 12.3972037,9.66947812 11.7502915,9.65360552 C11.2181668,9.65360552 10.5553171,9.56409758 9.85976739,9.39174524 C8.06813068,9.00020889 6.03851907,8.11767045 5.33460691,6.79425591 C4.72875716,5.66662821 7.35585601,4.58830289 7.98604321,4.44938029 Z" id="Path" fill="#FFFFFF"></path>
                        <path d="M8.2726181,5.79795143 C7.74049335,5.91171747 7.24943104,6.15684413 6.82373126,6.5323956 C7.50334346,7.2350946 8.89444283,7.76633969 10.1631423,8.06833067 C10.768167,8.19130578 11.3245918,8.26490371 11.7829916,8.28077631 C11.9472415,8.28077631 12.0779665,8.28077631 12.1759914,8.28077631 C12.1265664,7.72534801 11.9304415,7.25182821 11.6355416,6.89211191 C11.2675918,6.4270151 10.735467,6.0756843 10.1631048,5.89580743 C9.55733001,5.71596799 8.88604281,5.66662821 8.2726181,5.79795143 Z" id="Path" fill="#000000"></path>
                        <path d="M23.174774,6.5323956 C22.7657617,6.15680673 22.2579369,5.91171747 21.7342121,5.78956592 C21.1124249,5.66659081 20.4495752,5.71596803 19.843688,5.89580746 C19.2546007,6.0756469 18.7308384,6.4270151 18.3629636,6.89211194 C18.0679887,7.25182825 17.8719013,7.73373355 17.8224388,8.28077635 C17.9205388,8.28077635 18.0679887,8.28077635 18.2322011,8.28077635 C18.6654384,8.26490375 19.2470257,8.19130586 19.8361129,8.0524207 C21.1040249,7.76633969 22.5034868,7.2350946 23.174774,6.5323956 Z" id="Path" fill="#000000"></path>
                    </g>
                </g>
            </g>
        </g>
    </g>
</svg>