<?xml version="1.0" encoding="UTF-8"?>
<svg width="17px" height="14px" viewBox="0 0 17 14" version="1.1" xmlns="http://www.w3.org/2000/svg" xmlns:xlink="http://www.w3.org/1999/xlink">
    <!-- Generator: Sketch 49.1 (51147) - http://www.bohemiancoding.com/sketch -->
    <title>system-friendsz</title>
    <desc>Created with Sketch.</desc>
    <defs>
        <rect id="path-1" x="0" y="0" width="299" height="896"></rect>
        <filter x="-4.8%" y="-1.4%" width="109.7%" height="103.2%" filterUnits="objectBoundingBox" id="filter-3">
            <feOffset dx="0" dy="2" in="SourceAlpha" result="shadowOffsetOuter1"></feOffset>
            <feGaussianBlur stdDeviation="4.5" in="shadowOffsetOuter1" result="shadowBlurOuter1"></feGaussianBlur>
            <feColorMatrix values="0 0 0 0 0   0 0 0 0 0   0 0 0 0 0  0 0 0 0.141077899 0" type="matrix" in="shadowBlurOuter1"></feColorMatrix>
        </filter>
    </defs>
    <g id="Page-1" stroke="none" stroke-width="1" fill="none" fill-rule="evenodd">
        <g id="c-EVEND-进行中详情" transform="translate(-1295.000000, -861.000000)">
            <g id="Group-3" transform="translate(1278.000000, 334.000000)">
                <mask id="mask-2" fill="white">
                    <use xlink:href="#path-1"></use>
                </mask>
                <g id="Mask">
                    <use fill="black" fill-opacity="1" filter="url(#filter-3)" xlink:href="#path-1"></use>
                    <use fill="#FFFFFF" fill-rule="evenodd" xlink:href="#path-1"></use>
                </g>
            </g>
            <g id="system-friendsz" transform="translate(1295.000000, 861.000000)" fill="#014266" fill-rule="nonzero">
                <path d="M15.9601516,13.2868786 C16.4200493,13.2868786 16.7380032,13.0757946 16.8969802,12.7334963 C16.9821464,12.5509372 17.0048574,12.3740831 16.9991797,12.2200489 L16.9991797,11.398533 C16.9991797,10.3659332 15.9487961,9.69274653 13.6493079,8.55745721 C12.5591802,8.0211899 12.3888477,7.83292584 12.3888477,7.41075795 C12.3888477,7.39364303 12.3888477,7.37082315 12.3945255,7.34800325 C12.4115587,7.20537897 12.4853694,7.03422983 12.6046022,6.8573757 C12.6557019,6.7775061 12.7124794,6.70334147 12.7692569,6.63488181 C12.8033234,6.59494702 12.8260344,6.56642216 12.8373899,6.55501222 C13.1383105,6.2412388 13.3427095,5.77343113 13.4789755,5.19152404 C13.5584639,4.84922575 13.6038859,4.48981255 13.6322747,4.13039934 C13.6493079,3.90790545 13.6549857,3.7196414 13.6549857,3.599837 L13.6549857,3.4172779 C13.6549857,1.95110023 13.0417888,0.975550106 12.042505,0.433577827 C11.6961624,0.245313768 11.3271087,0.125509367 10.9637328,0.0570497092 C10.7423006,0.0171149144 10.5662904,0 10.4584131,0 L10.2767252,0 C10.2426587,0 10.1915589,0 10.1291037,0.0057049659 C10.0212265,0.0114099318 9.90767152,0.0228198803 9.80547204,0.0342298289 C9.53861785,0.0741646236 9.35125214,0.136919315 9.22066391,0.279543597 L9.80547204,0.758761201 C9.7997943,0.764466167 9.7543723,0.758761201 9.88496051,0.741646286 C9.97012674,0.730236338 10.0609707,0.718826406 10.1518147,0.718826406 C10.2085922,0.718826406 10.2483364,0.71312144 10.2710474,0.713121423 L10.4527354,0.713121423 C10.4640909,0.713121423 10.4981574,0.713121423 10.5492571,0.718826406 C10.6401011,0.724531372 10.7366228,0.741646286 10.8445001,0.758761201 C11.1510985,0.81581091 11.4747302,0.867155653 11.7586176,1.02118988 C12.5591802,1.44906274 13.0247555,2.20211898 13.0247556,3.41157294 L13.0247556,3.59413203 C13.0247556,3.97066015 12.9850113,4.50692746 12.8657786,5.03178484 C12.7579014,5.50529748 12.5989244,5.86471068 12.3945255,6.07579462 C12.315037,6.16136919 12.201482,6.29828851 12.087927,6.46943765 C11.9175946,6.72616137 11.8040396,6.98859005 11.7699731,7.25101873 C11.7642953,7.30236348 11.7586176,7.35370822 11.7586176,7.399348 C11.7586176,8.14669927 12.0936048,8.5175224 13.3824537,9.15077423 C15.3583103,10.1263244 16.3178498,10.7709861 16.3178498,11.3871231 L16.3178498,12.1744091 C16.3178498,12.2485737 16.3121721,12.3227384 16.2781056,12.391198 C16.2270058,12.4995925 16.1304841,12.5680522 15.9147297,12.5680522 L14.4271595,12.5680522 L14.4271595,13.2754686 L15.9601516,13.2754686 L15.9601516,13.2868786 Z M13.9218399,12.2200489 C13.9218399,11.1075795 11.9403056,10.1206194 10.4924796,9.4189079 C9.04465371,8.71149144 8.87999899,8.397718 8.87999899,7.81581091 C8.87999899,7.23960879 9.48751811,6.61206193 9.48751811,6.61206193 C10.3164694,5.76202118 10.2937584,3.61124694 10.2937584,3.61124694 L10.2937584,3.41157294 C10.2937584,0.0342298289 7.06311939,0.0057049659 7.06311941,0.0057049659 L6.85872046,0.0057049659 C6.85872046,0.0057049659 3.63375919,0.0342298289 3.63375917,3.41157294 L3.63375917,3.61124694 C3.63375917,3.61124694 3.61104818,5.7620212 4.4399995,6.61206193 C4.4399995,6.61206193 5.04751862,7.23390382 5.04751861,7.81581091 C5.04751861,8.39201303 4.88286389,8.71149143 3.43503798,9.4189079 C1.9815343,10.1206194 0,11.1075795 0,12.2200489 L0.00567774317,13.201304 C0.00567774317,13.201304 -0.0510997385,14 0.811918072,14 L13.1155995,14 C13.9842951,14 13.9218399,13.201304 13.9218399,13.201304 L13.9218399,12.2200489 Z" id="Shape"></path>
            </g>
        </g>
    </g>
</svg>