<?xml version="1.0" encoding="UTF-8"?>
<svg width="25px" height="25px" viewBox="0 0 25 25" version="1.1" xmlns="http://www.w3.org/2000/svg" xmlns:xlink="http://www.w3.org/1999/xlink">
    <!-- Generator: Sketch 49.1 (51147) - http://www.bohemiancoding.com/sketch -->
    <title>Group 10 Copy 3</title>
    <desc>Created with Sketch.</desc>
    <defs>
        <rect id="path-1" x="343" y="334" width="915" height="1251"></rect>
        <filter x="-1.6%" y="-1.0%" width="103.2%" height="102.3%" filterUnits="objectBoundingBox" id="filter-2">
            <feOffset dx="0" dy="2" in="SourceAlpha" result="shadowOffsetOuter1"></feOffset>
            <feGaussianBlur stdDeviation="4.5" in="shadowOffsetOuter1" result="shadowBlurOuter1"></feGaussianBlur>
            <feColorMatrix values="0 0 0 0 0   0 0 0 0 0   0 0 0 0 0  0 0 0 0.141077899 0" type="matrix" in="shadowBlurOuter1"></feColorMatrix>
        </filter>
    </defs>
    <g id="Page-1" stroke="none" stroke-width="1" fill="none" fill-rule="evenodd">
        <g id="c-EVEND-进行中详情" transform="translate(-1165.000000, -447.000000)">
            <g id="Mask">
                <use fill="black" fill-opacity="1" filter="url(#filter-2)" xlink:href="#path-1"></use>
                <use fill="#FFFFFF" fill-rule="evenodd" xlink:href="#path-1"></use>
            </g>
            <g id="Group-12" transform="translate(1006.000000, 447.000000)">
                <g id="Group-10-Copy-3" transform="translate(159.000000, 0.000000)" fill="#8C8C8C">
                    <circle id="Oval-4" cx="12.5" cy="12.5" r="12.5"></circle>
                </g>
                <g id="微信" transform="translate(164.000000, 7.000000)" fill="#FFFFFF" fill-rule="nonzero">
                    <path d="M9.92582252,3.61336465 C10.0941447,3.61336465 10.26017,3.62629232 10.426786,3.64456823 C9.97791051,1.55391201 7.74381954,0.00116480239 5.1922789,0.00116480239 C2.34074422,0.00116480239 0.00477404922,1.94443251 0.00477404922,4.41320656 C0.00477404922,5.83774348 0.781418345,7.00741834 2.08023863,7.91602983 L1.56208203,9.47624161 L3.37589262,8.56759732 C4.02432662,8.69470843 4.5444519,8.82695451 5.1922789,8.82695451 C5.35518717,8.82695451 5.51663535,8.81955556 5.67580313,8.80748098 C5.57535123,8.46053393 5.51550336,8.09752573 5.51550336,7.7191126 C5.51665175,5.45293214 7.46215063,3.61336465 9.92582252,3.61336465 Z M7.13723639,2.20718568 C7.52911857,2.20718568 7.78676957,2.46483669 7.78676957,2.85471738 C7.78676957,3.24320358 7.52910216,3.50344668 7.13723639,3.50344668 C6.74961969,3.50344668 6.3594437,3.24320358 6.3594437,2.85473378 C6.3594437,2.4637047 6.74875019,2.20718568 7.13723639,2.20718568 Z M3.50672782,3.50343028 C3.11740492,3.50343028 2.72548993,3.24318717 2.72548993,2.85471738 C2.72548993,2.46480388 3.11740492,2.20716928 3.50672782,2.20716928 C3.89605071,2.20716928 4.15457122,2.46368829 4.15457122,2.85470097 C4.15457122,3.24318717 3.89606711,3.50343028 3.50672782,3.50343028 Z" id="Shape"></path>
                    <path d="M14.661909,7.65665623 C14.661909,5.58291424 12.5858702,3.89273676 10.2544773,3.89273676 C7.78565399,3.89273676 5.8427308,5.58407905 5.8427308,7.65665623 C5.8427308,9.73614019 7.78678598,11.4211335 10.2544773,11.4211335 C10.7715019,11.4211335 11.2924966,11.2917584 11.811211,11.1617763 L13.2334183,11.9421611 L12.8435048,10.6453095 C13.8849694,9.86267711 14.661909,8.82693811 14.661909,7.65665623 Z M8.82365697,7.00740194 C8.56602237,7.00740194 8.30494258,6.75093214 8.30494258,6.48868755 C8.30494258,6.23046234 8.56603878,5.97053095 8.82365697,5.97053095 C9.21757345,5.97053095 9.47294407,6.23046234 9.47294407,6.48868755 C9.47294407,6.75093214 9.21757345,7.00740194 8.82365697,7.00740194 Z M11.6772424,7.00740194 C11.4218717,7.00740194 11.1613661,6.75093214 11.1613661,6.48868755 C11.1613661,6.23046234 11.4207233,5.97053095 11.6772424,5.97053095 C12.0677136,5.97053095 12.326513,6.23046234 12.326513,6.48868755 C12.326513,6.75093214 12.0676972,7.00740194 11.6772424,7.00740194 Z" id="Shape"></path>
                </g>
            </g>
        </g>
    </g>
</svg>