<?xml version="1.0" encoding="UTF-8"?>
<svg width="25px" height="25px" viewBox="0 0 25 25" version="1.1" xmlns="http://www.w3.org/2000/svg" xmlns:xlink="http://www.w3.org/1999/xlink">
    <!-- Generator: Sketch 49.1 (51147) - http://www.bohemiancoding.com/sketch -->
    <title>Group 10</title>
    <desc>Created with Sketch.</desc>
    <defs></defs>
    <g id="Page-1" stroke="none" stroke-width="1" fill="none" fill-rule="evenodd">
        <g id="c-EVEND-进行中详情" transform="translate(-1066.000000, -447.000000)">
            <g id="Group-12" transform="translate(1006.000000, 447.000000)">
                <g id="Group-10" transform="translate(60.000000, 0.000000)">
                    <circle id="Oval-4" fill="#8C8C8C" cx="12.5" cy="12.5" r="12.5"></circle>
                    <path d="M20,8.51260505 C19.4964029,8.71428573 18.8920863,8.91596638 18.3884892,9.01680672 C18.9928057,8.61344539 19.3956835,8.00840335 19.6978417,7.30252102 C19.0935252,7.60504204 18.4892086,7.90756303 17.8848921,8.00840337 C17.381295,7.40336136 16.5755396,7 15.7697842,7 C14.1582734,7 12.8489209,8.41176471 12.8489209,10.0252101 C12.8489209,10.2268908 12.8489209,10.5294118 12.9496403,10.7310924 C10.5323741,10.6302521 8.41726619,9.42016808 7.00719425,7.5042017 C6.8057554,7.90756303 6.60431657,8.51260507 6.60431657,9.01680672 C6.60431657,10.0252101 7.00719425,11.0336134 7.81294965,11.5378151 C7.30935254,11.5378151 6.40287771,11.3361345 6.40287771,11.1344538 C6.40287771,12.6470588 7.51079137,13.8571428 8.82014388,14.1596639 C8.61870502,14.2605042 8.31654677,14.2605042 8.11510791,14.2605042 C7.91366905,14.2605042 7.81294963,14.2605042 7.6115108,14.1596639 C8.01438848,15.3697479 9.02158274,16.2773109 10.3309352,16.2773109 C9.32374099,17.0840336 8.11510791,17.5882353 6.70503597,17.5882353 L6,17.5882353 C7.30935251,18.4957983 8.82014388,19 10.4316547,19 C15.7697842,19 18.6906475,14.3613445 18.6906475,10.3277311 L18.6906475,9.92436975 C19.0935251,9.72268907 19.5971223,9.11764706 20,8.51260505 Z" id="Shape" fill="#FFFFFF" fill-rule="nonzero"></path>
                </g>
            </g>
        </g>
    </g>
</svg>