<?xml version="1.0" encoding="UTF-8"?>
<svg width="25px" height="25px" viewBox="0 0 25 25" version="1.1" xmlns="http://www.w3.org/2000/svg" xmlns:xlink="http://www.w3.org/1999/xlink">
    <!-- Generator: Sketch 49.1 (51147) - http://www.bohemiancoding.com/sketch -->
    <title>Group 10 Copy 2</title>
    <desc>Created with Sketch.</desc>
    <defs>
        <rect id="path-1" x="343" y="334" width="915" height="1251"></rect>
        <filter x="-1.6%" y="-1.0%" width="103.2%" height="102.3%" filterUnits="objectBoundingBox" id="filter-2">
            <feOffset dx="0" dy="2" in="SourceAlpha" result="shadowOffsetOuter1"></feOffset>
            <feGaussianBlur stdDeviation="4.5" in="shadowOffsetOuter1" result="shadowBlurOuter1"></feGaussianBlur>
            <feColorMatrix values="0 0 0 0 0   0 0 0 0 0   0 0 0 0 0  0 0 0 0.141077899 0" type="matrix" in="shadowBlurOuter1"></feColorMatrix>
        </filter>
    </defs>
    <g id="Page-1" stroke="none" stroke-width="1" fill="none" fill-rule="evenodd">
        <g id="c-EVEND-进行中详情" transform="translate(-1132.000000, -447.000000)">
            <g id="Mask">
                <use fill="black" fill-opacity="1" filter="url(#filter-2)" xlink:href="#path-1"></use>
                <use fill="#FFFFFF" fill-rule="evenodd" xlink:href="#path-1"></use>
            </g>
            <g id="Group-12" transform="translate(1006.000000, 447.000000)">
                <g id="Group-10-Copy-2" transform="translate(126.000000, 0.000000)" fill="#8C8C8C">
                    <circle id="Oval-4" cx="12.5" cy="12.5" r="12.5"></circle>
                </g>
                <g id="微博" transform="translate(138.384615, 12.000000) rotate(-360.000000) translate(-138.384615, -12.000000) translate(131.000000, 6.000000)" fill="#FFFFFF" fill-rule="nonzero">
                    <path d="M11.156419,5.90199958 C10.914927,5.87990004 10.695957,5.74917511 10.8562555,5.47896798 C11.0164489,5.20876086 11.312165,4.42240623 10.7433599,3.86862021 C10.1744496,3.31271121 8.93067482,3.5231213 8.05034754,3.88199198 C7.17219885,4.24078895 7.2196168,3.99054366 7.24669131,3.74467699 C7.2760045,3.48551226 7.75010894,2.03681995 6.30088638,1.86189592 C4.40247034,1.63375018 1.96674094,3.93957759 1.10668198,5.26857263 C-0.193510557,7.27537064 0.0118320187,8.63317323 0.0118320333,8.63317324 L0.0208919187,8.63317324 C0.176668023,10.5071381 2.98927702,12 6.43627397,12 C9.40021175,12 11.8968513,10.8946836 12.6349698,9.39288751 C12.6349698,9.39288751 12.6372235,9.38629745 12.6440447,9.37513712 C12.7207909,9.21348167 12.7794473,9.04960004 12.8156117,8.87902516 C12.9194174,8.47595539 12.9984323,7.89117987 12.8042681,7.31520584 C12.4588652,6.29634158 11.3979861,5.92420233 11.156419,5.90208804 L11.156419,5.90199958 Z M6.00969265,11.1803855 C3.55590357,11.1803855 1.5649504,9.88686175 1.5649504,8.29202347 C1.5649504,6.69728839 3.55364987,5.40364672 6.00969265,5.40364672 C8.46340662,5.40364672 10.4544499,6.69728839 10.4544499,8.29202347 C10.4544499,9.88910267 8.46340662,11.1803855 6.00969265,11.1803855 Z M12.0526424,4.779036 C12.0977766,4.79899783 12.1451795,4.8078288 12.1925825,4.8078288 C12.3325526,4.8078288 12.4679552,4.72582902 12.5244481,4.59082866 C12.6169852,4.37589251 12.6643881,4.14784997 12.6643881,3.91078479 C12.6643881,2.94947664 11.8675381,2.16757437 10.8877623,2.16757437 C10.650469,2.16733654 10.4155618,2.21403839 10.1970768,2.30488936 C10.0142562,2.38019589 9.92842013,2.5883798 10.0051663,2.76999709 C10.0819125,2.9493882 10.2940763,3.03361415 10.4792557,2.95830763 C10.6101359,2.90510065 10.7478222,2.87630784 10.8900311,2.87630784 C11.4724636,2.87630784 11.9441941,3.34150403 11.9441941,3.91078479 C11.9441941,4.05025224 11.9171046,4.18544425 11.8607319,4.31385455 C11.781702,4.49547183 11.8674479,4.70365575 12.0525523,4.77896228 L12.0526424,4.779036 Z" id="Shape"></path>
                    <path d="M10.8580977,5.91887271e-16 C10.4790645,5.91887271e-16 10.1042736,0.0554642208 9.74425334,0.162230014 C9.47537977,0.243281095 9.32286727,0.527194285 9.40124469,0.798306959 C9.48167983,1.06936279 9.76333679,1.2230686 10.0322949,1.14406333 C10.3004784,1.06465267 10.5785687,1.02439741 10.8580836,1.02452541 C12.452594,1.02452541 13.7506344,2.33303506 13.7506345,3.94031844 C13.7506345,4.22845111 13.7082957,4.51442432 13.6278606,4.78768225 C13.5473549,5.05879491 13.6977251,5.34476813 13.9666833,5.42594706 C14.0153362,5.44087865 14.0662018,5.44722919 14.1149252,5.44722919 C14.3330318,5.44722919 14.5341831,5.3042639 14.6019054,5.08441017 C14.712065,4.71512697 14.7692308,4.33089797 14.7692308,3.94031844 C14.7671026,1.76736814 13.0137796,0 10.8581682,0 L10.8580977,0 Z M5.91575415,6.23060456 C4.68756414,6.23060456 3.69230769,7.10793099 3.69230769,8.19223956 C3.69230769,9.27651972 4.68756414,10.1538462 5.91575415,10.1538462 C7.14391596,10.1538462 8.13917241,9.27651972 8.13917241,8.19223956 C8.13917241,7.10793098 7.14391596,6.23060456 5.91575415,6.23060456 Z M5.18945584,9.4665813 C4.75955691,9.4665813 4.41016363,9.11438914 4.41016363,8.68104647 C4.41016363,8.24778903 4.75955693,7.89562529 5.18945584,7.89562529 C5.61927019,7.89562529 5.9686353,8.24780323 5.9686353,8.68104647 C5.96864939,9.11438916 5.61927019,9.4665813 5.18945584,9.4665813 Z M6.64630888,8.05140532 C6.55317492,8.21576639 6.36465194,8.28404536 6.22705103,8.20296586 C6.08945012,8.12394639 6.05555374,7.92540321 6.14865952,7.76111317 C6.24187804,7.5967521 6.43031646,7.52838789 6.56800194,7.60955263 C6.70558876,7.69061792 6.73949922,7.88917531 6.64630888,8.05140532 Z" id="Shape"></path>
                </g>
            </g>
        </g>
    </g>
</svg>