<?xml version="1.0" encoding="UTF-8"?>
<svg width="34px" height="34px" viewBox="0 0 34 34" version="1.1" xmlns="http://www.w3.org/2000/svg" xmlns:xlink="http://www.w3.org/1999/xlink">
    <!-- Generator: Sketch 49.1 (51147) - http://www.bohemiancoding.com/sketch -->
    <title>签到 copy</title>
    <desc>Created with Sketch.</desc>
    <defs></defs>
    <g id="Page-1" stroke="none" stroke-width="1" fill="none" fill-rule="evenodd">
        <g id="c-EVENDS-进行中" transform="translate(-509.000000, -311.000000)">
            <g id="Group-6" transform="translate(343.000000, 293.000000)" fill="#FFFFFF">
                <polygon id="Rectangle-7" points="1 5.68434189e-14 916 0 916 89 1 89"></polygon>
            </g>
            <g id="Group-8" transform="translate(382.000000, 293.000000)" fill="#000000">
                <g id="Group-7" transform="translate(5.000000, 18.000000)">
                    <g id="签到-copy" transform="translate(122.000000, 0.000000)" fill-rule="nonzero">
                        <path d="M6.9167105,4.99999788 C7.15938634,5.00025344 7.39219952,4.90803235 7.56379736,4.74367623 C7.7353952,4.57932012 7.83167965,4.35633205 7.83141282,4.12389755 L7.83141282,0.877229445 C7.83147528,0.563845494 7.65695629,0.274241183 7.37361009,0.117531936 C7.09026389,-0.0391773118 6.74114895,-0.0391773118 6.45780275,0.117531936 C6.17445655,0.274241183 5.99993756,0.563845494 6.00000002,0.877229445 L6.00000002,4.12293587 C6.00000002,4.60762802 6.40965816,4.99999788 6.9167105,4.99999788 Z M26.0842931,4.99999788 C26.3271427,5.00050923 26.5602142,4.90840108 26.7320295,4.74401718 C26.9038447,4.57963327 27.0002669,4.35649897 26.9999994,4.12389755 L26.9999994,0.877229444 C27.0000619,0.563845494 26.8255429,0.274241183 26.5421967,0.117531936 C26.2588505,-0.0391773119 25.9097356,-0.0391773119 25.6263894,0.117531936 C25.3430432,0.274241183 25.1685242,0.563845494 25.1685866,0.877229444 L25.1685866,4.12293587 C25.1685866,4.60762802 25.5782448,4.99999788 26.0842931,4.99999788 Z" id="Shape"></path>
                        <path d="M30.8166071,2.00100329 L28.2141108,2.00100329 L28.2141108,4.37479228 C28.192105,5.26412581 27.4648514,5.9736182 26.5752604,5.9736182 C25.6856694,5.9736182 24.9584158,5.26412581 24.93641,4.37479228 L24.93641,2.00100329 L9.06258668,2.00100329 L9.06258668,4.37479228 C9.04058088,5.26412581 8.3133273,5.9736182 7.42373632,5.9736182 C6.53414533,5.9736182 5.80689176,5.26412581 5.78488595,4.37479228 L5.78488595,2.00100329 L3.18339285,2.00100329 C1.42822071,2.0015507 0.00442378538,3.42223015 0,5.17742594 L0,30.8215708 C0.00387054436,32.5773212 1.42766762,33.9988983 3.18339285,34 L30.8166071,34 C32.5723324,33.9988983 33.9961295,32.5773212 34,30.8215708 L34,5.17742594 C33.9961283,3.42183818 32.57217,2.00054884 30.8166071,2 L30.8166071,2.00100329 Z M31.9282363,30.8225741 C31.9282363,31.4345822 31.4296084,31.9322151 30.8166071,31.9322151 L3.18339285,31.9322151 C2.57023978,31.9322161 2.07287048,31.4357363 2.07176371,30.8225741 L2.07176371,9.91095784 L31.9292396,9.91095784 L31.9292396,30.8215708 L31.9282363,30.8225741 Z" id="Shape"></path>
                    </g>
                    <rect id="Rectangle-28-Copy-3" x="130" y="18" width="4" height="4"></rect>
                    <rect id="Rectangle-28-Copy-4" x="137" y="18" width="4" height="4"></rect>
                    <rect id="Rectangle-28-Copy-5" x="144" y="18" width="4" height="4"></rect>
                </g>
            </g>
        </g>
    </g>
</svg>