<?xml version="1.0" encoding="UTF-8"?>
<svg width="34px" height="34px" viewBox="0 0 34 34" version="1.1" xmlns="http://www.w3.org/2000/svg" xmlns:xlink="http://www.w3.org/1999/xlink">
    <!-- Generator: Sketch 49.1 (51147) - http://www.bohemiancoding.com/sketch -->
    <title>Group 2</title>
    <desc>Created with Sketch.</desc>
    <defs></defs>
    <g id="Page-1" stroke="none" stroke-width="1" fill="none" fill-rule="evenodd">
        <g id="c-EVENDS-进行中" transform="translate(-387.000000, -311.000000)">
            <g id="Group-8" transform="translate(382.000000, 293.000000)">
                <g id="Group-7" transform="translate(5.000000, 18.000000)">
                    <g id="Group-2">
                        <g id="签到" fill="#29ABE2" fill-rule="nonzero">
                            <path d="M6.9167105,5.24541355 C7.15938634,5.24568165 7.39219952,5.14893406 7.56379736,4.97651082 C7.7353952,4.80408759 7.83167965,4.57015457 7.83141282,4.32631145 L7.83141282,0.920286632 C7.83147528,0.591520809 7.65695629,0.287701805 7.37361009,0.123300774 C7.09026389,-0.0411002578 6.74114895,-0.0411002578 6.45780275,0.123300774 C6.17445655,0.287701805 5.99993756,0.591520809 6.00000002,0.920286632 L6.00000002,4.32530256 C6.00000002,4.83378494 6.40965816,5.24541355 6.9167105,5.24541355 Z M26.0842931,5.24541355 C26.3271427,5.24594999 26.5602142,5.14932088 26.7320295,4.9768685 C26.9038447,4.80441612 27.0002669,4.57032968 26.9999994,4.32631145 L26.9999994,0.920286632 C27.0000619,0.591520808 26.8255429,0.287701805 26.5421967,0.123300774 C26.2588505,-0.0411002579 25.9097356,-0.0411002579 25.6263894,0.123300774 C25.3430432,0.287701805 25.1685242,0.591520808 25.1685866,0.920286632 L25.1685866,4.32530256 C25.1685866,4.83378494 25.5782448,5.24541355 26.0842931,5.24541355 Z" id="Shape"></path>
                            <path d="M30.8166071,2.00100329 L28.2141108,2.00100329 L28.2141108,4.37479228 C28.192105,5.26412581 27.4648514,5.9736182 26.5752604,5.9736182 C25.6856694,5.9736182 24.9584158,5.26412581 24.93641,4.37479228 L24.93641,2.00100329 L9.06258668,2.00100329 L9.06258668,4.37479228 C9.04058088,5.26412581 8.3133273,5.9736182 7.42373632,5.9736182 C6.53414533,5.9736182 5.80689176,5.26412581 5.78488595,4.37479228 L5.78488595,2.00100329 L3.18339285,2.00100329 C1.42822071,2.0015507 0.00442378538,3.42223015 0,5.17742594 L0,30.8215708 C0.00387054436,32.5773212 1.42766762,33.9988983 3.18339285,34 L30.8166071,34 C32.5723324,33.9988983 33.9961295,32.5773212 34,30.8215708 L34,5.17742594 C33.9961283,3.42183818 32.57217,2.00054884 30.8166071,2 L30.8166071,2.00100329 Z M31.9282363,30.8225741 C31.9282363,31.4345822 31.4296084,31.9322151 30.8166071,31.9322151 L3.18339285,31.9322151 C2.57023978,31.9322161 2.07287048,31.4357363 2.07176371,30.8225741 L2.07176371,9.91095784 L31.9292396,9.91095784 L31.9292396,30.8215708 L31.9282363,30.8225741 Z" id="Shape"></path>
                        </g>
                        <g id="Group" transform="translate(9.000000, 16.000000)" stroke="#29ABE2" stroke-width="2">
                            <polyline id="Path-6" points="0 0 3.97608555 4.53592238 0 8.25883728"></polyline>
                            <polyline id="Path-6-Copy" points="6 0 9.97608555 4.53592238 6 8.25883728"></polyline>
                            <polyline id="Path-6-Copy-2" points="11 0 14.9760856 4.53592238 11 8.25883728"></polyline>
                        </g>
                    </g>
                </g>
            </g>
        </g>
    </g>
</svg>