<?xml version="1.0" encoding="UTF-8"?>
<svg width="31px" height="20px" viewBox="0 0 31 20" version="1.1" xmlns="http://www.w3.org/2000/svg" xmlns:xlink="http://www.w3.org/1999/xlink">
    <!-- Generator: Sketch 49.1 (51147) - http://www.bohemiancoding.com/sketch -->
    <title>Group 12</title>
    <desc>Created with Sketch.</desc>
    <defs>
        <rect id="path-1" x="0" y="0" width="166" height="46" rx="23"></rect>
    </defs>
    <g id="Page-1" stroke="none" stroke-width="1" fill="none" fill-rule="evenodd">
        <g id="c-EVENDS-进行中" transform="translate(-1094.000000, -328.000000)">
            <g id="Group-6" transform="translate(343.000000, 293.000000)">
                <polygon id="Rectangle-7" fill="#FFFFFF" points="1 5.68434189e-14 916 0 916 89 1 89"></polygon>
                <g id="Group-13" transform="translate(731.000000, 22.000000)">
                    <g id="Path-2">
                        <mask id="mask-2" fill="white">
                            <use xlink:href="#path-1"></use>
                        </mask>
                        <use id="Mask" fill="#29ABE2" xlink:href="#path-1"></use>
                    </g>
                    <g id="Group-12" transform="translate(20.000000, 13.000000)" fill="#FFFFFF" fill-rule="nonzero">
                        <g id="神灯" transform="translate(0.371429, 0.000000)">
                            <g id="Group-4">
                                <path d="M11.7620241,3.72447672 C11.9446363,3.52836022 12.103759,2.54041337 12.0360248,2.35463202 C11.9563317,2.13633893 11.1087315,1.81653552 10.961403,1.89955136 C10.8158205,1.98193954 10.6088951,3.07064348 10.6734996,3.24303518 C10.7551365,3.45517741 11.5767762,3.92222509 11.7620241,3.72447672 Z M11.3308773,2.15671625 C11.3450435,2.15236461 11.3605275,2.15152776 11.3769339,2.14939377 C11.3931098,2.14654847 11.4106693,2.14822216 11.42869,2.14939377 C11.4470731,2.14939377 11.4653245,2.15341065 11.4842347,2.15872467 C11.5027496,2.16357844 11.5212645,2.16809744 11.5392523,2.17776307 C11.5585249,2.18709397 11.572724,2.19274275 11.5951594,2.20642529 C11.6105116,2.21910362 11.6246778,2.22927137 11.6391405,2.24625952 C11.6533396,2.26425187 11.6685601,2.2812818 11.6759397,2.30128262 C11.6806178,2.31078092 11.6843406,2.31960969 11.6885245,2.32881506 C11.6917202,2.33814596 11.6937957,2.3473095 11.6968266,2.35618015 C11.7023283,2.37316825 11.704305,2.39049112 11.706677,2.40534527 C11.7087525,2.41915334 11.7079948,2.43254299 11.7087525,2.44317103 C11.7085219,2.46451078 11.706677,2.47639409 11.706677,2.47639409 C11.706677,2.47639409 11.7037779,2.46455261 11.6985068,2.44555605 C11.6920825,2.42722897 11.6832863,2.40053337 11.668593,2.37270799 C11.6625641,2.35852333 11.6533726,2.34484079 11.6439175,2.3317022 C11.6357472,2.31638779 11.622767,2.30852136 11.6129495,2.29584306 C11.6020778,2.28333209 11.5830357,2.27513093 11.5684742,2.26232711 C11.5532208,2.25563229 11.5377368,2.24864457 11.5221211,2.24211711 C11.5063735,2.2316146 11.4893082,2.22776508 11.4723417,2.22274395 C11.4558035,2.21759729 11.4399242,2.21077693 11.423913,2.20876852 C11.4077372,2.20642533 11.3915943,2.20060919 11.3767692,2.20060919 C11.3613841,2.19927021 11.3468226,2.19575542 11.3334141,2.19575542 C11.3068936,2.19479304 11.284063,2.19529517 11.2682825,2.19625754 C11.2526667,2.19759652 11.2430798,2.19927021 11.2430798,2.19927021 C11.2430798,2.19927021 11.2744102,2.17102645 11.3308773,2.15671625 Z" id="Shape"></path>
                                <path d="M30.5858686,0.931983537 C30.5196943,0.471987717 30.1463921,0.469583014 30.0009931,0.444491753 C30.0009931,0.444491753 29.9586648,0.00645475169 29.4380163,1.68148875e-08 C29.4380163,1.68148875e-08 29.0200284,-0.000917573804 28.8803348,0.425950183 C28.8818721,0.425602144 28.8947517,0.422596259 28.9187684,0.419115747 C28.9439468,0.415698529 28.9800232,0.411047313 29.024128,0.409939872 C29.0461975,0.408927356 29.0701118,0.409939872 29.095051,0.41028791 C29.120776,0.412945757 29.1474575,0.413578572 29.1744465,0.418387976 C29.2018113,0.42354545 29.2305084,0.426962668 29.2585565,0.435284246 C29.2868779,0.442118683 29.3151651,0.452180517 29.3432132,0.462938429 C29.3709879,0.47312682 29.3962004,0.49002306 29.4221645,0.503533744 C29.4454298,0.521031167 29.4700956,0.536819996 29.4883388,0.557386598 C29.5072653,0.577700086 29.5270117,0.595956881 29.5370898,0.618801628 C29.5490811,0.640507303 29.5628148,0.659650056 29.5667777,0.680564728 C29.5714923,0.69749263 29.5755919,0.712015799 29.5791107,0.726222591 C29.5797598,0.716318976 29.5786666,0.709579465 29.5808188,0.697840669 C29.5835519,0.68350732 29.5869682,0.668446261 29.5924002,0.652847283 C29.5971489,0.637311598 29.6052114,0.621427843 29.6129665,0.604942905 C29.6227714,0.589818553 29.6311072,0.572036354 29.6456266,0.557892856 C29.6570713,0.542262246 29.6716249,0.528023822 29.6874083,0.514766282 C29.7025085,0.500781003 29.7219816,0.491573496 29.7383116,0.480214401 C29.7554616,0.470279154 29.7752421,0.464330646 29.7927679,0.45676847 C29.8104986,0.450851625 29.8294251,0.447212924 29.8462676,0.443162861 C29.8634517,0.439112828 29.8806017,0.439365942 29.8955652,0.438005387 C29.9255264,0.434588169 29.9506706,0.439903831 29.9682647,0.440916347 C29.9854489,0.442656603 29.9948096,0.444586709 29.9948096,0.444586709 C29.9948096,0.444586709 29.9854489,0.446864855 29.9691188,0.450883256 C29.9524813,0.455534472 29.9281229,0.458318875 29.9008606,0.467146681 C29.8875369,0.471924454 29.87271,0.474835414 29.8579856,0.480246032 C29.8431588,0.485783207 29.8276145,0.491605127 29.8122751,0.498281375 C29.7973116,0.506001771 29.781904,0.514418243 29.7663939,0.522486677 C29.7527627,0.5327067 29.7364326,0.540522021 29.7246122,0.553020158 C29.7106052,0.564126109 29.6985798,0.575453572 29.6871692,0.588711112 C29.6748021,0.600797947 29.6659538,0.614435188 29.6558414,0.627154838 C29.6474373,0.641266705 29.6378716,0.653733211 29.6306631,0.666990781 C29.6235913,0.68059639 29.6170661,0.692967971 29.6117366,0.705814209 C29.5943817,0.743973159 29.5867974,0.768937863 29.5835861,0.780233665 C29.5839619,0.803236631 29.5835861,0.816399245 29.5835861,0.816399245 C29.5835861,0.816399245 29.579179,0.803015118 29.5725513,0.780581704 C29.5698183,0.769507384 29.5660262,0.755870143 29.5615166,0.740492647 C29.5545814,0.72584289 29.5460065,0.709579465 29.5371582,0.691955455 C29.5312138,0.673666998 29.5153962,0.658162945 29.5028582,0.639747931 C29.4914135,0.620731735 29.4712914,0.606714793 29.4543806,0.589438852 C29.436684,0.572036354 29.4129747,0.560677259 29.3928525,0.545046618 C29.3684941,0.533466041 29.3468346,0.518847916 29.3198456,0.509893553 C29.2952138,0.499800087 29.2700013,0.489864841 29.2428074,0.482777291 C29.217629,0.474803782 29.1908108,0.468918568 29.1652225,0.46259039 C29.1140118,0.451990666 29.0647141,0.444555047 29.02242,0.439365942 C28.9399498,0.428924437 28.8830679,0.426456441 28.8802324,0.426329884 C28.8799591,0.427215843 28.8794808,0.427785364 28.8791734,0.428671323 C28.8791734,0.428671323 28.5462863,0.482777322 28.380731,0.717046747 C28.380731,0.717046747 27.8850558,1.41637454 29.0475642,1.89880375 C29.0475642,1.89880375 28.6063112,2.34604825 29.2321826,2.49887394 C29.2321826,2.49887394 29.8964195,2.69824341 29.2321826,3.30068667 C29.2321826,3.30068667 29.6836163,3.00247093 29.7881902,2.70817866 C29.8800894,2.44793204 29.6387258,2.31250886 29.610951,2.28979067 C29.3791189,2.10127403 29.7289852,1.94544246 29.994878,1.81530331 C29.9948437,1.81527168 30.6717893,1.52740251 30.5858686,0.931983537 Z" id="Shape"></path>
                                <path d="M28.6288573,3.50748066 C28.522078,3.50202224 28.4293152,3.49820135 28.3532784,3.50202224 C28.2877122,3.50519493 24.9108177,3.50202224 20.890538,8.43797355 C20.890538,8.43797355 20.4880417,8.91108252 19.9350776,9.60948801 C18.5157362,11.4031265 16.5097778,12.7581804 13.8558178,12.6967049 C13.4886804,12.688415 13.1493084,12.6692422 12.7426974,12.5576174 C11.2408296,12.1429477 10.3753555,11.1068704 10.3188213,9.73223435 C10.2723228,7.70313311 12.0742899,6.14267176 13.9248965,6.09016854 C14.4005527,6.07713655 14.8803234,6.18848841 15.2946953,6.36261217 C15.1738995,6.35190001 15.0514981,6.34739679 14.9273906,6.34633924 C13.1430528,6.33163561 11.6896905,7.27689834 11.1725537,8.67927006 L11.1749623,8.67476687 C11.0949447,8.91377765 11.0515238,9.17046008 11.0515238,9.43584188 C11.0515238,10.347433 11.5119593,11.0547766 12.2534262,11.4484996 C12.5725598,11.6168238 12.9594339,11.7418899 13.3660448,11.7842951 C14.0040777,11.8514337 14.6227419,11.8049347 15.3538721,11.6306745 C17.1728998,11.1969685 18.1812481,10.3286355 18.7987414,9.55558606 C19.6867288,8.44268143 19.7548708,7.35955937 19.778856,7.12054856 C19.904703,5.86746477 19.1400202,2.85676816 13.8663552,3.35600935 C13.8663552,3.35600935 9.87116459,3.74864068 7.45635401,6.92721798 C6.81126268,6.26623682 4.31887659,4.00122929 1.63892424,5.49209571 C-0.480169304,6.67203659 -0.666798856,9.46163289 1.80207038,11.2964824 C5.27831775,13.8801255 6.39451574,14.9682967 5.87169206,15.587862 C5.66679764,15.831069 4.74826841,15.9182332 4.11251025,15.2377723 C4.11251025,15.2377723 3.97080694,15.0558703 3.87857936,15.2885015 C3.87857936,15.2885015 3.80953411,15.5741136 4.33195639,15.9027108 C4.9336268,16.2802632 5.97475817,16.3868731 6.38859475,15.991649 C6.49283166,15.8910093 6.57318375,15.787538 6.64426955,15.5441946 C7.22282454,16.565773 8.04153254,17.3212531 9.52727645,17.8414069 C9.52727645,17.8414069 9.97627125,17.9609464 10.6884007,18.0381149 C9.88585007,18.3581491 9.16411988,18.8423114 8.56529289,19.4524269 L8.56529289,19.4533821 C8.52862932,19.4906017 8.50611602,19.5417404 8.50611602,19.5984398 C8.50611602,19.7121114 8.59623613,19.80412 8.70796633,19.80412 C8.70743109,19.80412 17.1632322,19.80412 17.1632322,19.80412 C17.276936,19.80412 17.3695985,19.7096552 17.3695985,19.5935613 C17.3695985,19.5322564 17.3441414,19.4755229 17.3033298,19.437075 C16.5072354,18.6319574 15.4974487,18.0471895 14.3691076,17.7754964 C14.8416862,17.6440166 15.319316,17.465492 15.787044,17.2256624 C17.780692,16.3283656 20.1845972,14.2353667 22.3619643,10.480175 C25.624118,4.85253889 28.8515482,4.38215912 28.8515482,4.38215912 C29.1488375,4.33334034 29.2312301,4.12953641 29.1947004,3.89922496 C29.1578362,3.66870888 28.9144048,3.5323506 28.6288573,3.50748066 Z M16.8384118,4.1407262 C16.911973,4.13881575 17.0184847,4.14386478 17.1437965,4.16955351 C17.2061847,4.18313135 17.2745609,4.19865373 17.3440411,4.22328487 C17.4145582,4.24692667 17.4869486,4.27629983 17.5590715,4.31355357 C17.6326328,4.34876041 17.7045214,4.3941677 17.7750386,4.44325939 C17.8450205,4.49316986 17.9135305,4.54782232 17.976086,4.60991193 C18.0393775,4.67070515 18.0972497,4.73692265 18.150171,4.80542589 C18.2029919,4.87409969 18.2485873,4.9465603 18.2885626,5.01779274 C18.3273671,5.08957102 18.3614883,5.16121284 18.3888187,5.23111482 C18.4172196,5.30043681 18.4366887,5.3681554 18.4541173,5.43123432 C18.4705423,5.49390384 18.4843915,5.55087617 18.4913496,5.60324294 C18.5004151,5.65462036 18.5070721,5.69989116 18.509213,5.73741784 C18.5150672,5.81288055 18.5157362,5.85531981 18.5157362,5.85531981 C18.5157362,5.85531981 18.4960329,5.81642853 18.4671971,5.74860759 C18.4541173,5.7144583 18.4328083,5.67491887 18.4125363,5.62855634 C18.3921305,5.58219385 18.3641311,5.53231748 18.3377708,5.47752853 C18.324691,5.44941765 18.307898,5.42263724 18.2924097,5.39367347 C18.2765533,5.36430031 18.2609646,5.33506363 18.2417631,5.30558812 C18.207207,5.24551134 18.1672317,5.18471812 18.1253831,5.1230038 C18.1026021,5.09352829 18.0821963,5.06156242 18.0588802,5.03150696 C18.0343263,5.0021338 18.0113112,4.97071374 17.9864897,4.94188646 C17.9352076,4.88317427 17.8834571,4.8236092 17.8263877,4.77073073 C17.7713589,4.71512303 17.7102753,4.66524666 17.6512322,4.61642787 C17.5894796,4.57006538 17.528329,4.52411225 17.465807,4.48522097 C17.4035525,4.44482861 17.3415322,4.40866657 17.2811511,4.37656421 C17.2206696,4.34408656 17.1618273,4.31607803 17.1066647,4.2907646 C17.0516024,4.26739571 17.0004206,4.2450844 16.9540225,4.22676458 C16.9070891,4.21069635 16.8667124,4.19466222 16.832056,4.18354067 C16.7635125,4.16071763 16.7227343,4.14915258 16.7227343,4.14915258 C16.7227343,4.14915258 16.7642818,4.14127204 16.8384118,4.1407262 Z M5.7093488,11.7114251 C5.7093488,11.7114251 5.68987965,12.265967 5.82385551,13.0562787 C5.33819717,12.5676473 4.60485905,11.9012077 3.36826676,10.9862392 C0.703903129,9.01301861 2.02181762,6.99845045 3.90614392,7.63514158 C3.90614392,7.63514158 5.34364984,8.09791368 6.13442528,9.10533424 C6.177612,9.15875859 6.18574089,9.17155174 6.23387852,9.21235349 C5.97422296,9.95029842 5.79050373,10.7789214 5.7093488,11.7114251 Z" id="Shape"></path>
                            </g>
                        </g>
                    </g>
                </g>
                <g id="Group-13" transform="translate(761.000000, 35.000000)" fill="#FFFFFF" fill-rule="nonzero">
                    <g id="Group-12">
                        <g id="神灯" transform="translate(0.371429, 0.000000)">
                            <g id="Group-4">
                                <path d="M1.76202406,3.72447672 C1.94463629,3.52836022 2.10375899,2.54041337 2.03602479,2.35463202 C1.95633165,2.13633893 1.10873148,1.81653552 0.961402977,1.89955136 C0.815820534,1.98193954 0.608895143,3.07064348 0.673499603,3.24303518 C0.755136474,3.45517741 1.57677623,3.92222509 1.76202406,3.72447672 Z M1.33087732,2.15671625 C1.34504353,2.15236461 1.36052753,2.15152776 1.37693395,2.14939377 C1.39310977,2.14654847 1.41066929,2.14822216 1.42869001,2.14939377 C1.44707313,2.14939377 1.46532445,2.15341065 1.48423469,2.15872467 C1.50274959,2.16357844 1.52126448,2.16809744 1.53925226,2.17776307 C1.55852488,2.18709397 1.57272403,2.19274275 1.59515936,2.20642529 C1.61051158,2.21910362 1.62467776,2.22927137 1.63914048,2.24625952 C1.65333963,2.26425187 1.66856005,2.2812818 1.67593967,2.30128262 C1.68061779,2.31078092 1.68434055,2.31960969 1.68852453,2.32881506 C1.69172017,2.33814596 1.69379567,2.3473095 1.69682658,2.35618015 C1.70232833,2.37316825 1.70430503,2.39049112 1.70667704,2.40534527 C1.70875255,2.41915334 1.70799482,2.43254299 1.70875255,2.44317103 C1.70852194,2.46451078 1.70667704,2.47639409 1.70667704,2.47639409 C1.70667704,2.47639409 1.70377791,2.46455261 1.69850677,2.44555605 C1.69208255,2.42722897 1.68328635,2.40053337 1.66859302,2.37270799 C1.66256415,2.35852333 1.6533726,2.34484079 1.64391748,2.3317022 C1.6357472,2.31638779 1.62276699,2.30852136 1.61294949,2.29584306 C1.60207776,2.28333209 1.58303575,2.27513093 1.56847422,2.26232711 C1.55322083,2.25563229 1.53773684,2.24864457 1.52212108,2.24211711 C1.50637354,2.2316146 1.4893082,2.22776508 1.47234169,2.22274395 C1.45580346,2.21759729 1.43992415,2.21077693 1.42391304,2.20876852 C1.40773723,2.20642533 1.39159435,2.20060919 1.37676924,2.20060919 C1.36138409,2.19927021 1.34682256,2.19575542 1.33341407,2.19575542 C1.30689364,2.19479304 1.28406296,2.19529517 1.26828249,2.19625754 C1.25266673,2.19759652 1.24307984,2.19927021 1.24307984,2.19927021 C1.24307984,2.19927021 1.27441017,2.17102645 1.33087732,2.15671625 Z" id="Shape"></path>
                                <path d="M20.5858686,0.931983537 C20.5196943,0.471987717 20.1463921,0.469583014 20.0009931,0.444491753 C20.0009931,0.444491753 19.9586648,0.00645475169 19.4380163,1.68148875e-08 C19.4380163,1.68148875e-08 19.0200284,-0.000917573804 18.8803348,0.425950183 C18.8818721,0.425602144 18.8947517,0.422596259 18.9187684,0.419115747 C18.9439468,0.415698529 18.9800232,0.411047313 19.024128,0.409939872 C19.0461975,0.408927356 19.0701118,0.409939872 19.095051,0.41028791 C19.120776,0.412945757 19.1474575,0.413578572 19.1744465,0.418387976 C19.2018113,0.42354545 19.2305084,0.426962668 19.2585565,0.435284246 C19.2868779,0.442118683 19.3151651,0.452180517 19.3432132,0.462938429 C19.3709879,0.47312682 19.3962004,0.49002306 19.4221645,0.503533744 C19.4454298,0.521031167 19.4700956,0.536819996 19.4883388,0.557386598 C19.5072653,0.577700086 19.5270117,0.595956881 19.5370898,0.618801628 C19.5490811,0.640507303 19.5628148,0.659650056 19.5667777,0.680564728 C19.5714923,0.69749263 19.5755919,0.712015799 19.5791107,0.726222591 C19.5797598,0.716318976 19.5786666,0.709579465 19.5808188,0.697840669 C19.5835519,0.68350732 19.5869682,0.668446261 19.5924002,0.652847283 C19.5971489,0.637311598 19.6052114,0.621427843 19.6129665,0.604942905 C19.6227714,0.589818553 19.6311072,0.572036354 19.6456266,0.557892856 C19.6570713,0.542262246 19.6716249,0.528023822 19.6874083,0.514766282 C19.7025085,0.500781003 19.7219816,0.491573496 19.7383116,0.480214401 C19.7554616,0.470279154 19.7752421,0.464330646 19.7927679,0.45676847 C19.8104986,0.450851625 19.8294251,0.447212924 19.8462676,0.443162861 C19.8634517,0.439112828 19.8806017,0.439365942 19.8955652,0.438005387 C19.9255264,0.434588169 19.9506706,0.439903831 19.9682647,0.440916347 C19.9854489,0.442656603 19.9948096,0.444586709 19.9948096,0.444586709 C19.9948096,0.444586709 19.9854489,0.446864855 19.9691188,0.450883256 C19.9524813,0.455534472 19.9281229,0.458318875 19.9008606,0.467146681 C19.8875369,0.471924454 19.87271,0.474835414 19.8579856,0.480246032 C19.8431588,0.485783207 19.8276145,0.491605127 19.8122751,0.498281375 C19.7973116,0.506001771 19.781904,0.514418243 19.7663939,0.522486677 C19.7527627,0.5327067 19.7364326,0.540522021 19.7246122,0.553020158 C19.7106052,0.564126109 19.6985798,0.575453572 19.6871692,0.588711112 C19.6748021,0.600797947 19.6659538,0.614435188 19.6558414,0.627154838 C19.6474373,0.641266705 19.6378716,0.653733211 19.6306631,0.666990781 C19.6235913,0.68059639 19.6170661,0.692967971 19.6117366,0.705814209 C19.5943817,0.743973159 19.5867974,0.768937863 19.5835861,0.780233665 C19.5839619,0.803236631 19.5835861,0.816399245 19.5835861,0.816399245 C19.5835861,0.816399245 19.579179,0.803015118 19.5725513,0.780581704 C19.5698183,0.769507384 19.5660262,0.755870143 19.5615166,0.740492647 C19.5545814,0.72584289 19.5460065,0.709579465 19.5371582,0.691955455 C19.5312138,0.673666998 19.5153962,0.658162945 19.5028582,0.639747931 C19.4914135,0.620731735 19.4712914,0.606714793 19.4543806,0.589438852 C19.436684,0.572036354 19.4129747,0.560677259 19.3928525,0.545046618 C19.3684941,0.533466041 19.3468346,0.518847916 19.3198456,0.509893553 C19.2952138,0.499800087 19.2700013,0.489864841 19.2428074,0.482777291 C19.217629,0.474803782 19.1908108,0.468918568 19.1652225,0.46259039 C19.1140118,0.451990666 19.0647141,0.444555047 19.02242,0.439365942 C18.9399498,0.428924437 18.8830679,0.426456441 18.8802324,0.426329884 C18.8799591,0.427215843 18.8794808,0.427785364 18.8791734,0.428671323 C18.8791734,0.428671323 18.5462863,0.482777322 18.380731,0.717046747 C18.380731,0.717046747 17.8850558,1.41637454 19.0475642,1.89880375 C19.0475642,1.89880375 18.6063112,2.34604825 19.2321826,2.49887394 C19.2321826,2.49887394 19.8964195,2.69824341 19.2321826,3.30068667 C19.2321826,3.30068667 19.6836163,3.00247093 19.7881902,2.70817866 C19.8800894,2.44793204 19.6387258,2.31250886 19.610951,2.28979067 C19.3791189,2.10127403 19.7289852,1.94544246 19.994878,1.81530331 C19.9948437,1.81527168 20.6717893,1.52740251 20.5858686,0.931983537 Z" id="Shape"></path>
                            </g>
                        </g>
                    </g>
                </g>
            </g>
        </g>
    </g>
</svg>