<?xml version="1.0" encoding="UTF-8"?>
<svg width="11px" height="22px" viewBox="0 0 11 22" version="1.1" xmlns="http://www.w3.org/2000/svg" xmlns:xlink="http://www.w3.org/1999/xlink">
    <!-- Generator: Sketch 51.2 (57519) - http://www.bohemiancoding.com/sketch -->
    <title>Shape</title>
    <desc>Created with Sketch.</desc>
    <defs></defs>
    <g id="Symbols" stroke="none" stroke-width="1" fill="none" fill-rule="evenodd">
        <g id="顶部" transform="translate(-392.000000, -239.000000)" fill="#DEDEDE" fill-rule="nonzero">
            <g id="Group-7" transform="translate(392.000000, 239.000000)">
                <g id="web-Facebook">
                    <path d="M6.73838876,0.00798594848 C6.039,0.00798594848 5.37848478,0.0857330211 4.60137471,0.396566745 C3.00833255,1.05705621 2.231274,2.5335808 2.231274,4.90365574 L2.231274,7.19606089 L0.0166159251,7.19606089 L0.0166159251,11.0037611 L2.231274,11.0037611 L2.231274,21.999459 L6.738363,21.999459 L6.738363,11.0037611 L9.80785246,11.0037611 L10.2352295,7.19606089 L6.73831148,7.19606089 L6.73831148,5.48647541 C6.73831148,4.94252927 6.77715925,4.554 6.93255035,4.35965808 C7.12678923,4.01000234 7.51537002,3.85455972 8.13701171,3.85455972 L10.1962787,3.85455972 L10.1962787,0.0468594848 L6.73823419,0.0468594848 L6.73838876,0.00798594848 Z" id="Shape"></path>
                </g>
            </g>
        </g>
    </g>
</svg>