<?xml version="1.0" encoding="UTF-8"?>
<svg width="23px" height="23px" viewBox="0 0 23 23" version="1.1" xmlns="http://www.w3.org/2000/svg" xmlns:xlink="http://www.w3.org/1999/xlink">
    <!-- Generator: Sketch 51.2 (57519) - http://www.bohemiancoding.com/sketch -->
    <title>Shape</title>
    <desc>Created with Sketch.</desc>
    <defs>
        <filter x="-4.0%" y="-2.4%" width="108.1%" height="106.7%" filterUnits="objectBoundingBox" id="filter-1">
            <feOffset dx="0" dy="2" in="SourceAlpha" result="shadowOffsetOuter1"></feOffset>
            <feGaussianBlur stdDeviation="2" in="shadowOffsetOuter1" result="shadowBlurOuter1"></feGaussianBlur>
            <feColorMatrix values="0 0 0 0 0   0 0 0 0 0   0 0 0 0 0  0 0 0 0.5 0" type="matrix" in="shadowBlurOuter1" result="shadowMatrixOuter1"></feColorMatrix>
            <feMerge>
                <feMergeNode in="shadowMatrixOuter1"></feMergeNode>
                <feMergeNode in="SourceGraphic"></feMergeNode>
            </feMerge>
        </filter>
        <filter x="-2.4%" y="-1.7%" width="104.8%" height="104.0%" filterUnits="objectBoundingBox" id="filter-2">
            <feOffset dx="0" dy="1" in="SourceAlpha" result="shadowOffsetOuter1"></feOffset>
            <feGaussianBlur stdDeviation="2" in="shadowOffsetOuter1" result="shadowBlurOuter1"></feGaussianBlur>
            <feColorMatrix values="0 0 0 0 0   0 0 0 0 0   0 0 0 0 0  0 0 0 0.122990263 0" type="matrix" in="shadowBlurOuter1" result="shadowMatrixOuter1"></feColorMatrix>
            <feMerge>
                <feMergeNode in="shadowMatrixOuter1"></feMergeNode>
                <feMergeNode in="SourceGraphic"></feMergeNode>
            </feMerge>
        </filter>
    </defs>
    <g id="Symbols" stroke="none" stroke-width="1" fill="none" fill-rule="evenodd">
        <g id="safats" transform="translate(-5.000000, -260.000000)" fill="#8E8E93" fill-rule="nonzero">
            <g id="Group-3" filter="url(#filter-1)">
                <g id="Group-9-Copy" filter="url(#filter-2)">
                    <g id="Group-6">
                        <g id="赞" transform="translate(10.000000, 262.000000)">
                            <g id="Group">
                                <path d="M0,12.5576324 L2.33692188,12.5576324 L2.33692188,5.6230559 L0,5.6230559 L0,12.5576324 Z M12.8531073,6.20093238 C12.8531073,5.56237645 12.3302268,5.04516475 11.684639,5.04516475 L7.99521002,5.04516475 L8.55314976,2.40426025 C8.56484112,2.34646821 8.57359852,2.28578875 8.57359852,2.2222219 C8.57359852,1.98240616 8.4742739,1.76568966 8.31653696,1.60966725 L7.69433183,1 L3.84716591,4.80534901 C3.63684013,5.01627607 3.50539022,5.30522163 3.50539022,5.6230559 L3.50539022,11.4018648 C3.50539022,12.0404207 4.02827073,12.5576324 4.67385856,12.5576324 L9.93194388,12.5576324 C10.4168608,12.5576324 10.8316593,12.2657994 11.0069259,11.8526222 L12.7683784,7.77855412 C12.8209524,7.6456456 12.8530925,7.50406023 12.8530925,7.35670003 L12.8530925,6.25006223 L12.8472542,6.24428741 L12.8531073,6.20093238 Z" id="Shape"></path>
                            </g>
                        </g>
                    </g>
                </g>
            </g>
        </g>
    </g>
</svg>