<?xml version="1.0" encoding="UTF-8"?>
<svg width="30px" height="30px" viewBox="0 0 30 30" version="1.1" xmlns="http://www.w3.org/2000/svg" xmlns:xlink="http://www.w3.org/1999/xlink">
    <!-- Generator: Sketch 49.1 (51147) - http://www.bohemiancoding.com/sketch -->
    <title>Group 15</title>
    <desc>Created with Sketch.</desc>
    <defs></defs>
    <g id="Symbols" stroke="none" stroke-width="1" fill="none" fill-rule="evenodd">
        <g id="餐厅-copy-7">
            <g id="Group-15" stroke="#D9D9D9" stroke-width="0.5">
                <circle id="Oval-4" cx="15" cy="15" r="14.75"></circle>
            </g>
            <g id="操作-夜店" transform="translate(15.000000, 16.000000) scale(-1, 1) translate(-15.000000, -16.000000) translate(5.000000, 11.000000)">
                <path d="M11.608976,9.00115676 C10.3213016,8.19472441 9.68885188,8.19472441 8.39555247,9.00115676 L8.38995248,9.00115676 C7.95362769,9.27890212 7.52797786,9.53990139 7.04805307,9.65979435 L7.01507809,9.67095009 C6.43685334,9.80144971 5.85865359,9.83434293 5.20392889,9.64362228 C4.59270415,9.4640324 3.94352945,9.09372191 3.21782976,8.41836321 L3.18542977,8.39662573 C2.73792998,7.98224135 2.37815512,7.4814312 2.07258026,6.92594049 C1.25418062,5.46089551 0.93235576,3.76714547 0.119481121,2.30207553 C0.00495618337,2.13309235 -0.0335938085,1.91000259 0.0317561539,1.69751953 C0.141256098,1.29429089 0.566405919,1.04389828 0.970305749,1.16379124 C1.67980545,1.36511856 2.75970495,0.847587293 3.33795471,0.591579387 C4.40720423,0.118097051 5.28040384,-0.263369186 6.98822808,0.248596701 C7.22230298,0.319424396 7.48990287,0.411989539 7.75192775,0.493997911 C9.61227693,1.11470101 10.3815516,1.11470101 12.2525257,0.493997911 C12.5257006,0.401407806 12.7983505,0.313858995 13.0056004,0.248596701 C14.7134246,-0.27400082 15.5916492,0.118097075 16.6497738,0.591579387 C17.2883235,0.864283447 18.2760481,1.34892152 19.0011977,1.16379124 C19.2034476,1.11467605 19.4163226,1.12530769 19.6067975,1.23461893 C19.9777473,1.43594625 20.1090723,1.91000259 19.9017723,2.28028815 C19.0721477,3.75042435 18.7559479,5.45530517 17.9374982,6.92594049 C17.6318984,7.4814312 17.2609485,7.97165961 16.8134737,8.39662573 C16.071574,9.08259113 15.4168243,9.46405737 14.8005996,9.64364724 C14.1402499,9.83436789 13.5620502,9.80147468 12.9894004,9.67097505 C12.4821756,9.5616638 12.0620508,9.28950879 11.608976,9.00115676 Z" id="Path" fill="#595959"></path>
                <path d="M14.6749247,2.96625353 C15.0894495,3.05886859 16.8464987,3.77772718 16.4425489,4.52952888 C15.9844491,5.41180526 14.6207497,6.00016422 13.4313502,6.26118843 C12.9676504,6.37606506 12.5257506,6.43576195 12.1766008,6.43576195 C11.772701,6.44634368 11.4347011,6.37608999 11.2268762,6.23945096 L11.2162512,6.22881933 L11.1782513,6.20151648 C10.5944515,5.7168784 11.1559013,4.47487325 11.5218261,4.02312837 C11.8816009,3.57083443 12.3944507,3.23900749 12.9509005,3.05886857 C13.4967002,2.87371335 14.1078999,2.84638553 14.6749247,2.96625353 Z" id="Path" fill="#FFFFFF"></path>
                <path d="M5.32402881,2.96625353 C5.89162855,2.84638553 6.50225329,2.87371335 7.05870304,3.05886859 C7.61007778,3.23900751 8.11732757,3.57083448 8.4777024,4.02312839 C8.79387727,4.41520132 9.415652,5.70572269 8.81565225,6.2015165 C8.61900233,6.36490934 8.26480249,6.44631875 7.83352769,6.43573701 C7.47877785,6.43573701 7.03687805,6.37606506 6.57317826,6.2611635 C5.37875379,6.00013926 4.02567938,5.4117803 3.55640461,4.52950394 C3.15250478,3.77775214 4.90390401,3.05886859 5.32402881,2.96625353 Z" id="Path" fill="#FFFFFF"></path>
                <path d="M5.51507873,3.86530095 C5.1603289,3.94114498 4.83295403,4.10456276 4.54915417,4.3549304 C5.00222898,4.8233964 5.92962855,5.17755979 6.77542819,5.37888711 C7.178778,5.46087052 7.54972785,5.50993581 7.85532772,5.52051754 C7.96482767,5.52051754 8.05197763,5.52051754 8.1173276,5.52051754 C8.08437762,5.150232 7.95362766,4.83455214 7.75702776,4.59474127 C7.51172786,4.28467673 7.15697802,4.0504562 6.77540318,3.93053828 C6.37155334,3.81064533 5.92402854,3.77775214 5.51507873,3.86530095 Z" id="Path" fill="#595959"></path>
                <path d="M15.4498493,4.3549304 C15.1771744,4.10453782 14.8386246,3.94114498 14.4894747,3.85971061 C14.0749499,3.7777272 13.6330501,3.81064535 13.2291253,3.93053831 C12.8364005,4.05043126 12.4872256,4.28467673 12.2419757,4.59474129 C12.0453258,4.83455217 11.9146009,5.15582237 11.8816259,5.52051756 C11.9470259,5.52051756 12.0453258,5.52051756 12.1548008,5.52051756 C12.4436256,5.50993583 12.8313504,5.46087057 13.2240753,5.36828046 C14.0693499,5.17755979 15.0023245,4.8233964 15.4498493,4.3549304 Z" id="Path" fill="#595959"></path>
            </g>
        </g>
    </g>
</svg>