<?xml version="1.0" encoding="UTF-8"?>
<svg width="34px" height="34px" viewBox="0 0 34 34" version="1.1" xmlns="http://www.w3.org/2000/svg" xmlns:xlink="http://www.w3.org/1999/xlink">
    <!-- Generator: Sketch 51.2 (57519) - http://www.bohemiancoding.com/sketch -->
    <title>签到</title>
    <desc>Created with Sketch.</desc>
    <defs></defs>
    <g id="Page-1" stroke="none" stroke-width="1" fill="none" fill-rule="evenodd">
        <g id="e-个人中心" transform="translate(-571.000000, -980.000000)" fill="#FFFFFF" fill-rule="nonzero">
            <g id="签到" transform="translate(571.000000, 980.000000)">
                <path d="M6.9167105,5.24541355 C7.15938634,5.24568165 7.39219952,5.14893406 7.56379736,4.97651082 C7.7353952,4.80408759 7.83167965,4.57015457 7.83141282,4.32631145 L7.83141282,0.920286632 C7.83147528,0.591520809 7.65695629,0.287701805 7.37361009,0.123300774 C7.09026389,-0.0411002578 6.74114895,-0.0411002578 6.45780275,0.123300774 C6.17445655,0.287701805 5.99993756,0.591520809 6.00000002,0.920286632 L6.00000002,4.32530256 C6.00000002,4.83378494 6.40965816,5.24541355 6.9167105,5.24541355 Z M18.3981828,18.2359276 C18.4381277,18.3911604 18.5467791,18.5193777 18.6929255,18.5837473 C18.8390719,18.6481169 19.0065372,18.6415142 19.1472146,18.5658359 L20.45551,17.8565836 L20.45551,27.2816678 C20.45551,27.5681936 20.6884529,27.801248 20.9746111,27.801248 L22.5078169,27.801248 C22.7939752,27.801248 23.025914,27.5681936 23.025914,27.2816678 L23.025914,15.5209949 C23.025914,15.2334815 22.793954,15.0004058 22.5078169,15.0004058 L21.1543386,15.0004058 C21.0692828,15.0000323 20.9854587,15.0208292 20.910351,15.0609394 L18.3499877,16.4370703 C18.1404315,16.5494234 18.0339996,16.7907753 18.0919433,17.0222287 L18.3981828,18.2359276 Z M26.0842931,5.24541355 C26.3271427,5.24594999 26.5602142,5.14932088 26.7320295,4.9768685 C26.9038447,4.80441612 27.0002669,4.57032968 26.9999994,4.32631145 L26.9999994,0.920286632 C27.0000619,0.591520808 26.8255429,0.287701805 26.5421967,0.123300774 C26.2588505,-0.0411002579 25.9097356,-0.0411002579 25.6263894,0.123300774 C25.3430432,0.287701805 25.1685242,0.591520808 25.1685866,0.920286632 L25.1685866,4.32530256 C25.1685866,4.83378494 25.5782448,5.24541355 26.0842931,5.24541355 Z M8.38967243,27.1192359 C9.00817589,27.52582 10.2512072,28 11.722161,28 C15.014487,28 16.5135546,25.9015013 16.5135546,23.95131 C16.5135546,22.6004014 15.7946448,21.4542983 14.638967,20.8388732 C15.5556775,20.1871279 16.0627298,19.2397768 16.0627298,18.1249494 C16.0627298,16.4703639 14.8658855,14.8016538 12.1900548,14.8016538 C10.7241213,14.8016538 9.44996405,15.340403 8.80635903,15.8024763 C8.61523964,15.9392394 8.53944808,16.1879885 8.62161123,16.4088213 L9.05436283,17.5670312 C9.11065616,17.7190137 9.23434291,17.8358706 9.38877469,17.8829772 C9.54320648,17.9300838 9.71067119,17.9020373 9.84154903,17.8071479 C10.2783169,17.493382 11.0765478,17.1251358 11.8838153,17.1251358 C12.8748265,17.1251358 13.4210374,17.5710668 13.4210374,18.3791906 C13.4210374,19.4587067 12.1679654,19.8491486 11.3245516,19.8491485 L10.4409753,19.8491485 C10.1548382,19.8491485 9.92287821,20.0822242 9.92287821,20.3697376 L9.92287821,21.5642677 C9.92287821,21.8507935 10.154817,22.0838479 10.4409753,22.0838479 L11.3245516,22.0838479 C11.7412382,22.0838479 13.8166386,22.1726305 13.8367198,23.9250787 C13.8447524,24.3730275 13.6790818,24.804834 13.3848911,25.1054842 C13.0133874,25.4838193 12.4480993,25.676518 11.7040878,25.676518 C10.7150847,25.676518 9.77427675,25.2669072 9.3736552,25.0257817 C9.24021234,24.946121 9.07833455,24.9305098 8.93224864,24.9832131 C8.78616272,25.0359165 8.67113746,25.1514259 8.61859902,25.2981829 L8.18584742,26.5088552 C8.10464657,26.7351907 8.18904092,26.9879206 8.38967243,27.1192359 Z" id="Shape"></path>
                <path d="M30.8166071,2.00100329 L28.2141108,2.00100329 L28.2141108,4.37479228 C28.192105,5.26412581 27.4648514,5.9736182 26.5752604,5.9736182 C25.6856694,5.9736182 24.9584158,5.26412581 24.93641,4.37479228 L24.93641,2.00100329 L9.06258668,2.00100329 L9.06258668,4.37479228 C9.04058088,5.26412581 8.3133273,5.9736182 7.42373632,5.9736182 C6.53414533,5.9736182 5.80689176,5.26412581 5.78488595,4.37479228 L5.78488595,2.00100329 L3.18339285,2.00100329 C1.42822071,2.0015507 0.00442378538,3.42223015 0,5.17742594 L0,30.8215708 C0.00387054436,32.5773212 1.42766762,33.9988983 3.18339285,34 L30.8166071,34 C32.5723324,33.9988983 33.9961295,32.5773212 34,30.8215708 L34,5.17742594 C33.9961283,3.42183818 32.57217,2.00054884 30.8166071,2 L30.8166071,2.00100329 Z M31.9282363,30.8225741 C31.9282363,31.4345822 31.4296084,31.9322151 30.8166071,31.9322151 L3.18339285,31.9322151 C2.57023978,31.9322161 2.07287048,31.4357363 2.07176371,30.8225741 L2.07176371,9.91095784 L31.9292396,9.91095784 L31.9292396,30.8215708 L31.9282363,30.8225741 Z" id="Shape"></path>
            </g>
        </g>
    </g>
</svg>