<?xml version="1.0" encoding="UTF-8"?>
<svg width="34px" height="33px" viewBox="0 0 34 33" version="1.1" xmlns="http://www.w3.org/2000/svg" xmlns:xlink="http://www.w3.org/1999/xlink">
    <!-- Generator: Sketch 51.2 (57519) - http://www.bohemiancoding.com/sketch -->
    <title>收藏</title>
    <desc>Created with Sketch.</desc>
    <defs></defs>
    <g id="Page-1" stroke="none" stroke-width="1" fill="none" fill-rule="evenodd">
        <g id="e-个人中心" transform="translate(-1066.000000, -981.000000)" fill="#FFFFFF" fill-rule="nonzero">
            <g id="收藏" transform="translate(1066.000000, 981.000000)">
                <path d="M26.4223706,33 C26.081803,33 25.6277129,32.8852174 25.2871452,32.6556522 L17,28.1791304 L8.71285476,32.6556522 C7.91819699,33.1147826 7.12353923,33.1147826 6.55592654,32.6556522 C5.98831386,32.1965217 5.76126878,31.5078261 5.87479132,30.5895652 L7.46410684,21.1773913 L0.766277129,14.52 C0.0851419032,13.8313043 -0.141903172,13.1426087 0.0851419032,12.453913 C0.312186978,11.7652174 0.879799666,11.306087 1.78797997,11.1913043 L11.096828,9.81391304 L15.2971619,1.20521739 C16.0918197,-0.40173913 17.9081803,-0.40173913 18.7028381,1.20521739 L22.903172,9.81391304 L32.21202,11.1913043 C33.1202003,11.306087 33.687813,11.7652174 33.9148581,12.453913 C34.1419032,13.1426087 33.9148581,13.8313043 33.2337229,14.52 L26.5358932,21.1773913 L28.1252087,30.5895652 C28.2387312,31.5078261 28.0116861,32.1965217 27.4440735,32.6556522 C27.2170284,32.8852174 26.8764608,33 26.4223706,33 Z" id="Shape"></path>
                <path d="M23,0.192439863 L24.547619,7.45017182 C24.6666667,7.78006873 24.9047619,8 25.2619048,8 L32.8809524,7.56013746 C33,7.56013746 33,7.45017182 33,7.45017182 C33,7.45017182 33,7.34020619 32.8809524,7.34020619 L27.1666667,4.81099656 L23.2380952,0.0824742268 C23.2380952,-0.0274914089 23.1190476,-0.0274914089 23,0.0824742268 L23,0.192439863 Z" id="Shape"></path>
            </g>
        </g>
    </g>
</svg>