<?xml version="1.0" encoding="UTF-8"?>
<svg width="47px" height="23px" viewBox="0 0 47 23" version="1.1" xmlns="http://www.w3.org/2000/svg" xmlns:xlink="http://www.w3.org/1999/xlink">
    <!-- Generator: Sketch 51.2 (57519) - http://www.bohemiancoding.com/sketch -->
    <title>Group</title>
    <desc>Created with Sketch.</desc>
    <defs></defs>
    <g id="Page-1" stroke="none" stroke-width="1" fill="none" fill-rule="evenodd">
        <g id="e-个人中心" transform="translate(-1212.000000, -771.000000)">
            <g id="Group" transform="translate(1212.000000, 771.000000)">
                <path d="M44.185466,8.7403872 L44.185466,10.1365959 C44.7194534,10.5419468 44.9200374,11.2659317 44.9200374,12.0907502 L45,17 C33.1560529,17 21.3141387,17 9.46883622,17 L8.85556398,17 L3,15.6609304 L3.13824037,7.76364614 C8.23077171,7.76364614 13.3734491,7.76364614 18.3589119,7.76364614 L18.3589119,10.7570583 L20.3240936,14.5880613 L29.6898788,14.5880613 L30.2631698,7 L43.0985172,7.5357623 C43.7212766,7.55996236 44.185466,8.11992471 44.185466,8.7403872" id="Fill-10" fill="#3CBEE9"></path>
                <polyline id="Fill-257" fill="#000000" points="27 10.7500635 29.0924896 13 30.1689847 12.8324448 30.1689847 8.56296014 31 8 28.0744089 8.2760853 27 10.7500635"></polyline>
                <path d="M17.1728431,6.72926197 C17.0248745,6.97161991 16.9423899,7.28793994 17.0469124,7.5732223 L17.0550979,7.59435433 L18.828202,7.59435433 L18.828202,10.535008 L20.0642116,13.0807568 L20.508747,14 C20.7902021,14 21.0584344,13.9834906 21.2492194,13.9834906 C21.7882028,13.8329249 22.109326,13.2478319 21.965765,12.6818898 C21.2567753,9.90368865 20.2291808,7.31435497 19.3936307,4.59558763 C19.1033605,3.6532313 16.9826877,3.94049479 17.03306,4.68539874 L17.1728431,6.72926197" id="Fill-258" fill="#000000"></path>
                <polygon id="Fill-259" fill="#000000" points="21 16 30 16 30 13 21 13"></polygon>
                <path d="M4.03322021,15.9652714 L9.39003872,17.2034225 L19.01759,17.1940273 L16.3060561,11.8488382 C15.9794943,11.205268 15.3056259,10.8059727 14.5440945,10.8059727 L7.11280532,10.8059727 C6.36532671,10.8059727 5.70484202,11.1998993 5.34682855,11.8589045 L4.03322021,15.9652714 Z M20.3298599,18 L9.29969887,18 L3,16.5544837 L4.61005688,11.5414814 C5.14005067,10.5502894 6.06687061,10 7.11280532,10 L14.5440945,10 C15.611443,10 16.5596769,10.5677376 17.0227523,11.4837681 L20.3298599,18 Z M31.8532097,17.1940273 L44.1809187,17.1940273 L44.109316,12.7038 C44.1086468,11.0019294 43.2634673,10.8059727 42.6264041,10.8059727 L35.5979638,10.8059727 C34.8491468,10.8059727 34.1886621,11.1998993 33.8313178,11.8589045 L31.8532097,17.1940273 Z M45,18 L30.6935137,18 L33.0998996,11.5247043 C33.6252091,10.5502894 34.5506907,10 35.5979638,10 L42.6264041,10 C44.1006166,10 44.9136753,10.9556245 44.9136753,12.695747 L45,18 Z" id="Fill-260" fill="#000000"></path>
                <path d="M4.234482,15.6252318 L9.57806403,16.8287372 L10.0504286,16.8136029 L44.7641703,16.8136029 L44.6940905,12.6115332 C44.6940905,12.1121015 44.6085124,11.4626428 44.2015107,11.1606149 L43.9629699,10.9809774 L43.9629699,9.32146916 C43.9629699,9.0148352 43.7358845,8.74570796 43.4670208,8.73452174 L31.2913356,8.23509003 L30.7205898,15.6390501 L20.4714243,15.6390501 L18.2841271,11.2955076 L18.2841271,8.95890411 L4.35510006,8.95890411 L4.234482,15.6252318 Z M46,18 L9.44059988,18 L3,16.5661901 L3.15902716,7.77184902 L19.4990676,7.77184902 L19.4990676,11.1527188 L21.2180433,14.452653 L29.5939229,14.452653 L30.1660163,7 L43.5175591,7.54812466 C44.433313,7.58563139 45.1792581,8.37985284 45.1792581,9.32146916 L45.1792581,10.4236406 C45.6657734,10.9145182 45.9097049,11.6449124 45.9097049,12.601005 L46,18 Z" id="Fill-261" fill="#000000"></path>
                <polygon id="Fill-262" fill="#000000" points="15 19 35 19 35 17 15 17"></polygon>
                <polygon id="Fill-263" fill="#000000" points="44 18 47 18 47 15 44 15"></polygon>
                <polyline id="Fill-264" fill="#000000" points="3.42637658 15 1 15 1 18 7 18 7 17.1521608 3.42637658 16.2934673 3.42637658 15"></polyline>
                <path d="M2.66493891,5 L1.33728249,5 C0.600518327,5 0,5.57054307 0,6.27069099 L0,13.729309 C0,14.4287526 0.601258793,15 1.33728249,15 L2.66493891,15 C3.39948167,15 4,14.4287526 4,13.729309 L4,6.27069099 C4,5.56913432 3.39948167,5 2.66493891,5" id="Fill-265" fill="#000000"></path>
                <path d="M6.28293343,12.6866942 L4,18 L17,18 L14.3124447,12.6866942 C14.0911883,12.2524933 13.698069,12 13.2399938,12 L7.35403112,12 C6.89527924,12 6.47306511,12.2408173 6.28293343,12.6866942" id="Fill-266" fill="#000000"></path>
                <path d="M10.5006689,14 C8.01687231,14 6,16.0141264 6,18.5 C6,20.9845353 8.01687231,23 10.5006689,23 C12.9844656,23 15,20.9845353 15,18.5 C15,16.0141264 12.9844656,14 10.5006689,14" id="Fill-267" fill="#000000"></path>
                <path d="M11.0009833,14.1815619 C8.89741069,14.1815619 7.18321862,15.8942364 7.18321862,17.9996722 C7.18321862,20.1044522 8.89741069,21.8184381 11.0009833,21.8184381 C13.1065225,21.8184381 14.818748,20.1044522 14.818748,17.9996722 C14.818748,15.8942364 13.1065225,14.1815619 11.0009833,14.1815619 Z M11.0009833,23 C8.24385447,23 6,20.7568684 6,17.9996722 C6,15.2405088 8.24385447,13 11.0009833,13 C13.7574566,13 16,15.2405088 16,17.9996722 C16,20.7568684 13.7574566,23 11.0009833,23 Z" id="Fill-268" fill="#000000"></path>
                <path d="M34.787234,12.6866942 L33,18 L45,18 L42.4377821,12.6866942 C42.2282398,12.2524933 41.8536428,12 41.4165055,12 L35.8078659,12 C35.3707286,12 34.9419729,12.2269521 34.787234,12.6866942" id="Fill-269" fill="#000000"></path>
                <path d="M39.4996654,14 C37.0142762,14 35,16.0141264 35,18.5 C35,20.9845353 37.0142762,23 39.4996654,23 C41.9857238,23 44,20.9845353 44,18.5 C44,16.0141264 41.9857238,14 39.4996654,14" id="Fill-270" fill="#000000"></path>
                <path d="M39.0006555,14.1815619 C36.8965653,14.1815619 35.1831411,15.8942364 35.1831411,17.9996722 C35.1831411,20.1044522 36.8965653,21.8184381 39.0006555,21.8184381 C41.1047457,21.8184381 42.8162035,20.1044522 42.8162035,17.9996722 C42.8162035,15.8942364 41.1047457,14.1815619 39.0006555,14.1815619 Z M39.0006555,23 C36.2437074,23 34,20.7568684 34,17.9996722 C34,15.2405088 36.2437074,13 39.0006555,13 C41.7562926,13 44,15.2405088 44,17.9996722 C44,20.7568684 41.7562926,23 39.0006555,23 Z" id="Fill-271" fill="#000000"></path>
                <path d="M39.9996557,15 C38.3435097,15 37,16.3421324 37,18.0003443 C37,19.6564903 38.3435097,21 39.9996557,21 C41.6558017,21 43,19.6564903 43,18.0003443 C43,16.3421324 41.6558017,15 39.9996557,15" id="Fill-272" fill="#FFFFFE"></path>
                <path d="M39.4996209,17 C38.6724792,17 38,17.6709629 38,18.4996209 C38,19.328279 38.6724792,20 39.4996209,20 C40.3290371,20 41,19.328279 41,18.4996209 C41,17.6709629 40.3290371,17 39.4996209,17" id="Fill-273" fill="#000000"></path>
                <path d="M11.0003443,15 C9.34488695,15 8,16.3421324 8,18.0003443 C8,19.6564903 9.34488695,21 11.0003443,21 C12.6558017,21 14,19.6564903 14,18.0003443 C14,16.3421324 12.6558017,15 11.0003443,15" id="Fill-274" fill="#FFFFFE"></path>
                <path d="M10.5007583,17 C9.67113246,17 9,17.6709629 9,18.4996209 C9,19.328279 9.67113246,20 10.5007583,20 C11.3303842,20 12,19.328279 12,18.4996209 C12,17.6709629 11.3303842,17 10.5007583,17" id="Fill-275" fill="#000000"></path>
                <path d="M44.0268692,12 C44.5940421,11.7863539 45,11.1978678 45,10.5044776 C45,9.8021322 44.5800234,9.20533049 44,9 C44.0169393,9.07164179 44.0268692,9.14712154 44.0268692,9.2238806 L44.0268692,12" id="Fill-276" fill="#000000"></path>
                <path d="M6.24281404,8 L5,8 L5,1.90583473 C5,0.855407903 5.83473612,0 6.86422106,0 L18,0 L18,1.26938309 L6.86422106,1.26938309 C6.52083002,1.26938309 6.24281404,1.55522309 6.24281404,1.90583473 L6.24281404,8" id="Fill-277" fill="#000000"></path>
                <path d="M17.2410097,8 L16,8 L16,1.90583473 C16,0.855407903 16.8342114,0 17.8615145,0 L27.462504,0 L31,6.90521869 L29.9012323,7.49520373 L26.7114389,1.26938309 L17.8615145,1.26938309 C17.5234321,1.26938309 17.2410097,1.56155945 17.2410097,1.90583473 L17.2410097,8" id="Fill-278" fill="#000000"></path>
                <path d="M23.3534558,13.8585762 C23.1586468,13.8585762 23,13.6872113 23,13.4763497 L23,10.3822265 C23,10.1713649 23.1586468,10 23.3534558,10 C23.5470983,10 23.7028288,10.1713649 23.7028288,10.3822265 L23.7028288,13.4763497 C23.7028288,13.6872113 23.5470983,13.8585762 23.3534558,13.8585762 Z M24.6488772,14 C24.455818,14 24.2971712,13.8286351 24.2971712,13.6177735 L24.2971712,12.1385571 C24.2971712,11.9270584 24.455818,11.7556936 24.6488772,11.7556936 C24.8419364,11.7556936 25,11.9270584 25,12.1385571 L25,13.6177735 C25,13.8286351 24.8419364,14 24.6488772,14 Z" id="Fill-279" fill="#000000"></path>
                <path d="M26.4135253,12 C26.3634029,12 26.3105341,11.9928264 26.2610984,11.9732622 C26.0489367,11.8930487 25.945259,11.6654511 26.0290251,11.4639392 L28.2035109,6.24745437 C28.2865904,6.04594246 28.5282762,5.94877328 28.7376915,6.02703033 C28.9498532,6.10659167 29.0542175,6.33549356 28.9718246,6.53700547 L26.7980254,11.7534903 C26.7334843,11.9073958 26.5769378,12 26.4135253,12" id="Fill-280" fill="#000000"></path>
                <polyline id="Fill-281" fill="#000000" points="11.2316291 9 5 2.94252299 5.76772952 2 12 8.05747701 11.2316291 9"></polyline>
            </g>
        </g>
    </g>
</svg>