<?xml version="1.0" encoding="UTF-8"?>
<svg width="30px" height="30px" viewBox="0 0 30 30" version="1.1" xmlns="http://www.w3.org/2000/svg" xmlns:xlink="http://www.w3.org/1999/xlink">
    <!-- Generator: Sketch 51.2 (57519) - http://www.bohemiancoding.com/sketch -->
    <title>餐厅</title>
    <desc>Created with Sketch.</desc>
    <defs></defs>
    <g id="Symbols" stroke="none" stroke-width="1" fill="none" fill-rule="evenodd">
        <g id="kmer-recommendlist" transform="translate(-129.000000, -395.000000)">
            <g id="餐厅">
                <g transform="translate(129.000000, 395.000000)">
                    <g id="Group-15">
                        <circle id="Oval-4" stroke="#D9D9D9" stroke-width="0.5" cx="15" cy="15" r="14.75"></circle>
                        <g id="Group-13" transform="translate(6.000000, 6.000000)" fill="#595959" fill-rule="nonzero">
                            <path d="M2.68135565,6.26508621 L3.88522961,7.36422414 C5.19854666,8.46336207 6.94963606,8.57327586 7.93462385,7.47413793 C8.81016855,6.48491379 8.59128238,4.8362069 7.38740841,3.73706897 L6.18353445,2.63793103 L3.77578652,0.439655172 C3.55690035,0.219827586 3.22857108,0.219827586 3.00968491,0.439655172 C2.68135565,0.769396552 2.68135565,1.09913793 2.90024182,1.31896552 L5.30798975,3.51724138 L4.76077431,4.06681034 L2.35302638,1.86853448 C2.13414021,1.6487069 1.80581095,1.6487069 1.58692477,1.86853448 C1.36803859,2.19827586 1.36803859,2.52801724 1.58692477,2.63793103 L3.9946727,4.8362069 L3.33801417,5.49568966 L0.930266244,3.29741379 C0.711380069,3.07758621 0.383050807,3.07758621 0.164164631,3.29741379 C-0.0547215438,3.51724138 -0.0547215438,3.84698276 0.164164631,4.06681034 L2.68135565,6.26508621 Z M16.908957,0 L1.91525403,14.9482759 C1.91525403,14.9482759 1.03970933,15.9375 1.91525403,16.7068966 C2.68135565,17.3663793 3.66634343,16.7068966 3.66634343,16.7068966 L10.0140425,9.45258621 L11.7651319,10.4418103 C18.112831,4.50646552 16.908957,0 16.908957,0 Z" id="Shape"></path>
                            <path d="M17.543672,14.8810811 L12.7110071,10.227027 L11.885918,10.7945946 L10.5893494,10 L10,10.5675676 L15.657754,16.6972973 C15.657754,16.6972973 16.8364528,17.3783784 17.6615419,16.6972973 C18.486631,15.9027027 17.543672,14.8810811 17.543672,14.8810811 Z" id="Shape"></path>
                        </g>
                    </g>
                </g>
            </g>
        </g>
    </g>
</svg>