<?xml version="1.0" encoding="UTF-8"?>
<svg width="30px" height="32px" viewBox="0 0 30 32" version="1.1" xmlns="http://www.w3.org/2000/svg" xmlns:xlink="http://www.w3.org/1999/xlink">
    <!-- Generator: Sketch 51.2 (57519) - http://www.bohemiancoding.com/sketch -->
    <title>Shape</title>
    <desc>Created with Sketch.</desc>
    <defs></defs>
    <g id="Page-1" stroke="none" stroke-width="1" fill="none" fill-rule="evenodd">
        <g id="e-个人中心" transform="translate(-325.000000, -981.000000)" fill="#FFFFFF" fill-rule="nonzero">
            <g id="Group-8" transform="translate(304.000000, 981.000000)">
                <path d="M36,31.9999075 C38.1368715,31.9999075 39.9846369,30.7862393 41,29 L31,29 C32.0775365,30.8768032 33.9692508,32.0117968 36,31.9999075 M50.7504545,25.90154 L50.8459091,25.8549988 C50.0931818,24.4382303 48.1431818,20.3371303 48.1431818,18.4043021 L48.1431818,11.6311904 C48.1431818,5.21808849 42.6954545,0 36,0 C29.3045455,0 23.8581818,5.21808849 23.8581818,11.6311904 L23.8581818,18.5042288 C23.8581818,20.194769 22.2013636,23.9057443 21.1581818,25.8481545 L21.2536364,25.8960645 C21.0959598,26.1091627 21.0074092,26.3657961 21,26.6311415 C21,27.3867514 21.6409091,28 22.4290909,28 L29.2677273,28 L29.2677273,27.9548277 L43.8409091,27.9548277 L43.8409091,28 L49.5722727,28 C50.3604545,28 51,27.3867514 51,26.6311415 C51,26.3573698 50.895,26.1164507 50.7504545,25.90154" id="Shape"></path>
            </g>
        </g>
    </g>
</svg>