<?xml version="1.0" encoding="UTF-8"?>
<svg width="12px" height="12px" viewBox="0 0 12 12" version="1.1" xmlns="http://www.w3.org/2000/svg" xmlns:xlink="http://www.w3.org/1999/xlink">
    <!-- Generator: Sketch 51.2 (57519) - http://www.bohemiancoding.com/sketch -->
    <title>更多</title>
    <desc>Created with Sketch.</desc>
    <defs></defs>
    <g id="Symbols" stroke="none" stroke-width="1" fill="none" fill-rule="evenodd">
        <g id="more" transform="translate(-7.000000, -9.000000)" fill-rule="nonzero">
            <g id="Group-15" transform="translate(7.000000, 9.000000)">
                <g id="更多">
                    <path d="M10.8125,6.5 L6.6875,6.5 C6.3046875,6.5 6,6.8046875 6,7.1875 L6,11.3125 C6,11.6953125 6.3046875,12 6.6875,12 L10.8125,12 C11.1953125,12 11.5,11.6953125 11.5,11.3125 L11.5,7.1875 C11.5,6.8046875 11.1953125,6.5 10.8125,6.5" id="Shape" fill="#014266"></path>
                    <polygon id="Shape" fill="#FFFFFF" points="10.5 7.5 10.5 11 7 11 7 7.5"></polygon>
                    <path d="M11.8178176,2.81081081 L9.19302383,0.183313749 C8.94885696,-0.0611045828 8.55971602,-0.0611045828 8.31554916,0.183313749 L5.68312515,2.81081081 C5.43895828,3.05522914 5.43895828,3.44477086 5.68312515,3.68918919 L8.30791894,6.31668625 C8.55208581,6.56110458 8.94122675,6.56110458 9.18539361,6.31668625 L11.8101874,3.68918919 C12.0619845,3.44477086 12.0619845,3.05522914 11.8178176,2.81081081" id="Shape" fill="#014266"></path>
                    <polygon id="Shape" fill="#FFFFFF" points="11 3.25 8.75 5.5 6.5 3.25 8.75 1"></polygon>
                    <path d="M4.8125,0.5 L0.6875,0.5 C0.3046875,0.5 0,0.8046875 0,1.1875 L0,5.3125 C0,5.6953125 0.3046875,6 0.6875,6 L4.8125,6 C5.1953125,6 5.5,5.6953125 5.5,5.3125 L5.5,1.1875 C5.5,0.8046875 5.1953125,0.5 4.8125,0.5" id="Shape" fill="#014266"></path>
                    <polygon id="Shape" fill="#FFFFFF" points="4.5 1.5 4.5 5 1 5 1 1.5"></polygon>
                    <path d="M4.8125,6.5 L0.6875,6.5 C0.3046875,6.5 0,6.8046875 0,7.1875 L0,11.3125 C0,11.6953125 0.3046875,12 0.6875,12 L4.8125,12 C5.1953125,12 5.5,11.6953125 5.5,11.3125 L5.5,7.1875 C5.5,6.8046875 5.1953125,6.5 4.8125,6.5" id="Shape" fill="#014266"></path>
                    <polygon id="Shape" fill="#FFFFFF" points="4.5 7.5 4.5 11 1 11 1 7.5"></polygon>
                </g>
            </g>
        </g>
    </g>
</svg>