<?xml version="1.0" encoding="UTF-8"?>
<svg width="15px" height="16px" viewBox="0 0 15 16" version="1.1" xmlns="http://www.w3.org/2000/svg" xmlns:xlink="http://www.w3.org/1999/xlink">
    <!-- Generator: Sketch 51.2 (57519) - http://www.bohemiancoding.com/sketch -->
    <title>remind_fill</title>
    <desc>Created with Sketch.</desc>
    <defs></defs>
    <g id="Symbols" stroke="none" stroke-width="1" fill="none" fill-rule="evenodd" opacity="0.8">
        <g id="顶部" transform="translate(-1497.000000, -242.000000)" fill="#FFFFFF" fill-rule="nonzero">
            <g id="Group-5" transform="translate(1422.000000, 223.000000)">
                <g id="remind_fill" transform="translate(75.000000, 19.000000)">
                    <path d="M7.5,15.9999586 C8.54318182,15.9999586 9.44522727,15.4562806 9.94090909,14.6561121 L5.05909091,14.6561121 C5.58512464,15.4968498 6.50862517,16.0052845 7.5,15.9999586 M14.8752273,12.9077474 L14.9229545,12.8845541 C14.5465909,12.1785231 13.5715909,10.1347851 13.5715909,9.17158145 L13.5715909,5.79627576 C13.5715909,2.60037698 10.8477273,0 7.5,0 C4.15227273,0 1.42909091,2.60037698 1.42909091,5.79627576 L1.42909091,9.22137881 C1.42909091,10.0638409 0.600681818,11.9131646 0.0790909091,12.8811434 L0.126818182,12.9050188 C0.0479799224,13.0112139 0.00370458543,13.1391044 0,13.2713363 C0,13.6478862 0.320454545,13.9534919 0.714545455,13.9534919 L4.13386364,13.9534919 L4.13386364,13.9309808 L11.4204545,13.9309808 L11.4204545,13.9534919 L14.2861364,13.9534919 C14.6802273,13.9534919 15,13.6478862 15,13.2713363 C15,13.1349052 14.9475,13.0148459 14.8752273,12.9077474" id="Shape"></path>
                </g>
            </g>
        </g>
    </g>
</svg>