<?xml version="1.0" encoding="UTF-8"?>
<svg width="35px" height="35px" viewBox="0 0 35 35" version="1.1" xmlns="http://www.w3.org/2000/svg" xmlns:xlink="http://www.w3.org/1999/xlink">
    <!-- Generator: Sketch 49.1 (51147) - http://www.bohemiancoding.com/sketch -->
    <title>poi_taxi</title>
    <desc>Created with Sketch.</desc>
    <defs>
        <rect id="path-1" x="0" y="0" width="299" height="896"></rect>
        <filter x="-4.8%" y="-1.4%" width="109.7%" height="103.2%" filterUnits="objectBoundingBox" id="filter-3">
            <feOffset dx="0" dy="2" in="SourceAlpha" result="shadowOffsetOuter1"></feOffset>
            <feGaussianBlur stdDeviation="4.5" in="shadowOffsetOuter1" result="shadowBlurOuter1"></feGaussianBlur>
            <feColorMatrix values="0 0 0 0 0   0 0 0 0 0   0 0 0 0 0  0 0 0 0.141077899 0" type="matrix" in="shadowBlurOuter1"></feColorMatrix>
        </filter>
    </defs>
    <g id="Page-1" stroke="none" stroke-width="1" fill="none" fill-rule="evenodd">
        <g id="c-EVEND-进行中详情" transform="translate(-1334.000000, -1134.000000)">
            <g id="Group-3" transform="translate(1278.000000, 334.000000)">
                <mask id="mask-2" fill="white">
                    <use xlink:href="#path-1"></use>
                </mask>
                <g id="Mask">
                    <use fill="black" fill-opacity="1" filter="url(#filter-3)" xlink:href="#path-1"></use>
                    <use fill="#FFFFFF" fill-rule="evenodd" xlink:href="#path-1"></use>
                </g>
            </g>
            <g id="Group-3" transform="translate(1291.000000, 1121.000000)">
                <g id="Group">
                    <rect id="Rectangle-2" fill="#014266" x="0" y="0" width="275" height="60"></rect>
                    <text id="TAXI-PRINTOUT" font-family=".SFNSDisplay, .SF NS Display" font-size="20" font-weight="normal" fill="#FFFFFF">
                        <tspan x="75.1533203" y="34">TAXI PRINTOUT</tspan>
                    </text>
                    <g id="poi_taxi" transform="translate(43.000000, 13.000000)" fill-rule="nonzero">
                        <path d="M1,18 C1,27.3888407 8.61115925,35 18,35 C27.3888407,35 35,27.3888407 35,18 C35,8.61115925 27.3888407,1 18,1 C8.61115925,1 1,8.61115925 1,18 Z" id="Shape" fill="#014266"></path>
                        <path d="M17.5548228,7.19624026e-05 C7.89967028,-0.0273574483 0.0274294107,7.7900246 0,17.4451772 C0,27.1277591 7.81738205,34.9725706 17.4725346,35 C19.8314639,35 22.1355344,34.5337 24.3024579,33.6285295 C30.7757988,30.9130178 34.999928,24.5768239 34.999928,17.5274654 C35.0273574,7.87231283 27.2099754,0.0275013731 17.5548228,7.19624026e-05 Z M17.4725346,33.4913824 C8.61283496,33.4913824 1.42632936,26.3048768 1.42632936,17.4451772 C1.42632936,8.58547751 8.61283496,1.39897191 17.4725346,1.39897191 C26.3322343,1.39897191 33.5187399,8.58547751 33.5187399,17.4726066 C33.5187399,26.3048768 26.3322343,33.4913824 17.4725346,33.4913824 Z" id="Shape" fill="#FFFFFF"></path>
                        <path d="M10.1147185,22.8901071 C8.98903303,22.8627119 8.02808205,23.7393558 8.00062631,24.8625557 C7.97317056,25.9857556 8.85175432,26.9445848 9.97743975,26.97198 C11.1031252,26.9993751 12.0640762,26.1227312 12.0915319,24.9995313 L12.0915319,24.8625557 C12.0640762,23.794146 11.2129482,22.9448973 10.1147185,22.8901071 Z M25.0231866,22.9175022 C23.8975011,22.8901071 22.9365501,23.7667509 22.9090944,24.8899508 C22.8816386,26.0131508 23.7602224,26.97198 24.8859078,26.9993751 C26.0115933,27.0267702 26.9725443,26.1501264 27,25.0269264 L27,24.8899508 C26.9725443,23.8215411 26.0939605,22.9448973 25.0231866,22.9175022 Z M16.127526,20.2327804 L16.8413753,20.2327804 L16.4844507,19 L16.127526,20.2327804 Z" id="Shape" fill="#FFFFFF"></path>
                        <path d="M27.8260349,16.2992126 L26.467652,16.2992126 L24.6474191,11.8283465 C24.3214072,10.9984252 23.4792098,10.4629921 22.5826771,10.4629921 L21.088456,10.4629921 L21.088456,8.72283465 C21.088456,8.32125984 20.7624442,8 20.3549293,8 L17.7740019,8 C17.3664871,8 17.0404752,8.32125984 17.0404752,8.72283465 L17.0404752,10.4629921 L16.4699544,10.4629921 C16.0352719,10.4629921 15.627757,10.623622 15.3017452,10.8913386 L8.67283694,16.2992126 C6.09190956,16.2992126 4,18.3606299 4,20.903937 L4,24.6251969 C4,24.8393701 4.16300594,25 4.35317954,25 L6.58092738,25 C6.58092738,23.3401575 7.93931021,22.0015748 9.62370493,22.0015748 C11.3080996,22.0015748 12.6664825,23.3401575 12.6664825,25 L21.2786296,25 C21.2786296,23.3401575 22.6370125,22.0015748 24.3214072,22.0015748 C26.0058019,22.0015748 27.3641847,23.3401575 27.3641847,25 L29.5919326,25 C29.8092738,25 29.9722798,24.8393701 29.9722798,24.6251969 L29.9994474,18.4944882 C30.0266151,17.2897638 29.0485794,16.2992126 27.8260349,16.2992126 Z M13.3456739,21.6535433 L12.3676382,21.6535433 L12.3676382,19.1370079 L11.362435,19.1370079 L11.362435,18.3070866 L14.3508772,18.3070866 L14.3508772,19.1370079 L13.3456739,19.1370079 L13.3456739,21.6535433 Z M16.6872957,21.6535433 L16.5242897,21.0913386 L15.4104158,21.0913386 L15.2474099,21.6535433 L14.2422066,21.6535433 L15.4375834,18.3070866 L16.4971221,18.3070866 L17.692499,21.6535433 L16.6872957,21.6535433 Z M20.2734263,21.6535433 L19.6485702,20.5826772 L19.0237141,21.6535433 L17.9370079,21.6535433 L19.0237141,19.9133858 L18.0185108,18.3070866 L19.1052171,18.3070866 L19.6757379,19.3244094 L20.219091,18.3070866 L21.2786296,18.3070866 L20.300594,19.9133858 L21.3873003,21.6535433 L20.2734263,21.6535433 Z M22.7185154,21.6535433 L21.7404798,21.6535433 L21.7404798,18.3070866 L22.7185154,18.3070866 L22.7185154,21.6535433 Z M23.1260303,16.2992126 L12.7208178,16.2992126 C12.6121472,16.2992126 12.5306442,16.2188976 12.5306442,16.111811 C12.5306442,16.0582677 12.5578118,16.0047244 12.6121472,15.9779528 L16.2254455,13.0330709 C16.4156191,12.8724409 16.6872957,12.792126 16.9318046,12.792126 L21.7948151,12.792126 C22.3110006,12.792126 22.7728507,13.1401575 22.8815214,13.6488189 L23.3977068,15.8708661 C23.4520422,16.0582677 23.3162039,16.2456693 23.1260303,16.2992126 Z" id="Shape" fill="#FFFFFF"></path>
                    </g>
                </g>
            </g>
        </g>
    </g>
</svg>