<?xml version="1.0" encoding="UTF-8"?>
<svg width="20px" height="17px" viewBox="0 0 20 17" version="1.1" xmlns="http://www.w3.org/2000/svg" xmlns:xlink="http://www.w3.org/1999/xlink">
    <!-- Generator: Sketch 51.2 (57519) - http://www.bohemiancoding.com/sketch -->
    <title>Shape</title>
    <desc>Created with Sketch.</desc>
    <defs></defs>
    <g id="Symbols" stroke="none" stroke-width="1" fill="none" fill-rule="evenodd">
        <g id="顶部" transform="translate(-347.000000, -243.000000)" fill="#DEDEDE" fill-rule="nonzero">
            <path d="M367,245.142857 C366.280576,245.428571 365.417266,245.714286 364.697842,245.857143 C365.561151,245.285714 366.136691,244.428571 366.568345,243.428571 C365.705036,243.857143 364.841727,244.285714 363.978417,244.428571 C363.258993,243.571429 362.107914,243 360.956835,243 C358.654676,243 356.784173,245 356.784173,247.285714 C356.784173,247.571429 356.784173,248 356.928058,248.285714 C353.47482,248.142857 350.453237,246.428571 348.438849,243.714286 C348.151079,244.285714 347.863309,245.142857 347.863309,245.857143 C347.863309,247.285714 348.438849,248.714286 349.589928,249.428571 C348.870504,249.428571 347.57554,249.142857 347.57554,248.857143 C347.57554,251 349.158273,252.714286 351.028777,253.142857 C350.741007,253.285714 350.309353,253.285714 350.021583,253.285714 C349.733813,253.285714 349.589928,253.285714 349.302158,253.142857 C349.877698,254.857143 351.316547,256.142857 353.18705,256.142857 C351.748201,257.285714 350.021583,258 348.007194,258 L347,258 C348.870504,259.285714 351.028777,260 353.330935,260 C360.956835,260 365.129496,253.428571 365.129496,247.714286 L365.129496,247.142857 C365.705036,246.857143 366.42446,246 367,245.142857 Z" id="Shape"></path>
        </g>
    </g>
</svg>