<?xml version="1.0" encoding="UTF-8"?>
<svg width="23px" height="18px" viewBox="0 0 23 18" version="1.1" xmlns="http://www.w3.org/2000/svg" xmlns:xlink="http://www.w3.org/1999/xlink">
    <!-- Generator: Sketch 51.2 (57519) - http://www.bohemiancoding.com/sketch -->
    <title>微博</title>
    <desc>Created with Sketch.</desc>
    <defs></defs>
    <g id="Symbols" stroke="none" stroke-width="1" fill="none" fill-rule="evenodd">
        <g id="顶部" transform="translate(-428.000000, -242.000000)" fill="#DEDEDE" fill-rule="nonzero">
            <g id="Group-7" transform="translate(392.000000, 239.000000)">
                <g id="微博" transform="translate(47.500000, 12.000000) rotate(-360.000000) translate(-47.500000, -12.000000) translate(36.000000, 3.000000)">
                    <path d="M17.019231,8.73420716 C16.6508325,8.70062733 16.3167915,8.50199334 16.5613286,8.09141888 C16.8057052,7.68084442 17.2568232,6.48599388 16.3891052,5.64452681 C15.5212267,4.79983392 13.6238356,5.11954794 12.2808873,5.66484496 C10.9412625,6.21002996 11.0135991,5.82978712 11.0549015,5.45619751 C11.0996191,5.06240175 11.8228703,2.861142 9.61206646,2.59534835 C6.71601342,2.24868534 3.00028338,5.75234517 1.68825466,7.77172725 C-0.29520233,10.8210177 0.0180498652,12.8841723 0.0180498876,12.8841723 L0.0318708351,12.8841723 C0.269508872,15.7316254 4.56017259,18 9.81860162,18 C14.3401189,18 18.148768,16.3204933 19.2747753,14.0385434 C19.2747753,14.0385434 19.2782134,14.0285299 19.2886192,14.011572 C19.4056963,13.7659397 19.4951772,13.5169247 19.5503465,13.2577395 C19.7087031,12.6452829 19.8292411,11.7567279 19.5330416,10.8815465 C19.0061261,9.33340214 17.3877441,8.7679438 17.019231,8.73434157 L17.019231,8.73420716 Z M9.16784747,16.7546117 C5.42456718,16.7546117 2.3873478,14.7891276 2.3873478,12.3658019 C2.3873478,9.94263301 5.42112913,7.97696969 9.16784747,7.97696969 C12.9110132,7.97696969 15.9483701,9.94263301 15.9483701,12.3658019 C15.9483701,14.7925326 12.9110132,16.7546117 9.16784747,16.7546117 Z M18.386429,7.02788587 C18.4552817,7.05821749 18.5275953,7.07163597 18.599909,7.07163597 C18.8134348,7.07163597 19.0199929,6.9470389 19.1061733,6.74190848 C19.2473397,6.41531719 19.3196533,6.06881099 19.3196533,5.70859507 C19.3196533,4.24790607 18.1040504,3.05982079 16.6093925,3.05982079 C16.2473991,3.05945942 15.8890457,3.13042197 15.5557447,3.26846825 C15.2768501,3.38289505 15.1459062,3.69922645 15.2629833,3.97519038 C15.3800604,4.24777168 15.7037184,4.37575137 15.9862115,4.26132457 C16.1858706,4.18047761 16.3959125,4.1367275 16.6128535,4.1367275 C17.5013603,4.1367275 18.22099,4.84358404 18.22099,5.70859507 C18.22099,5.92051314 18.1796646,6.12593477 18.0936675,6.32105172 C17.9731066,6.59701564 18.1039129,6.91334705 18.3862914,7.02777385 L18.386429,7.02788587 Z" id="Shape"></path>
                    <path d="M16.2327703,8.99361178e-16 C15.6461713,8.99361178e-16 15.0661377,0.0842768031 14.5089635,0.246505346 C14.0928497,0.369660884 13.8568184,0.801061447 13.9781168,1.21301187 C14.1025997,1.62487593 14.5384974,1.85842891 14.9547421,1.73838195 C15.369788,1.61771899 15.8001659,1.55655191 16.2327485,1.55674641 C18.7004431,1.55674641 20.7093152,3.54500132 20.7093152,5.98723711 C20.7093152,6.4250491 20.643791,6.85957981 20.519308,7.27478991 C20.394716,7.68674032 20.6274317,8.12127105 21.0436765,8.24462086 C21.1189726,8.26730911 21.1976933,8.27695864 21.2730986,8.27695864 C21.6106444,8.27695864 21.92195,8.05972566 22.0267583,7.72566221 C22.1972435,7.16454358 22.2857143,6.5807151 22.2857143,5.98723711 C22.2824206,2.68548145 19.5689447,0 16.2328794,0 L16.2327703,0 Z M8.58390523,9.46728225 C6.68313497,9.46728225 5.14285714,10.8003627 5.14285714,12.4479484 C5.14285714,14.095491 6.68313497,15.4285714 8.58390523,15.4285714 C10.4846318,15.4285714 12.0249097,14.095491 12.0249097,12.4479484 C12.0249097,10.8003627 10.4846318,9.46728225 8.58390523,9.46728225 Z M7.45987213,14.3842859 C6.79455236,14.3842859 6.25382466,13.8491367 6.25382466,13.190681 C6.25382466,12.5323548 6.79455239,11.9972488 7.45987213,11.9972488 C8.12506101,11.9972488 8.6657451,12.5323763 8.6657451,13.190681 C8.66576691,13.8491368 8.12506101,14.3842859 7.45987213,14.3842859 Z M9.71452564,12.2339535 C9.57038976,12.483697 9.278628,12.5874455 9.06567421,12.4642468 C8.85272042,12.3441783 8.80026175,12.0424958 8.94435402,11.7928603 C9.08862078,11.5431168 9.38025166,11.4392387 9.59333633,11.562567 C9.80626831,11.6857441 9.85874879,11.9874482 9.71452564,12.2339535 Z" id="Shape"></path>
                </g>
            </g>
        </g>
    </g>
</svg>