<?xml version="1.0" encoding="UTF-8"?>
<svg width="22px" height="18px" viewBox="0 0 22 18" version="1.1" xmlns="http://www.w3.org/2000/svg" xmlns:xlink="http://www.w3.org/1999/xlink">
    <!-- Generator: Sketch 51.2 (57519) - http://www.bohemiancoding.com/sketch -->
    <title>微信</title>
    <desc>Created with Sketch.</desc>
    <defs></defs>
    <g id="Symbols" stroke="none" stroke-width="1" fill="none" fill-rule="evenodd">
        <g id="顶部" transform="translate(-475.000000, -243.000000)" fill="#DEDEDE" fill-rule="nonzero">
            <g id="Group-7" transform="translate(392.000000, 239.000000)">
                <g id="微信" transform="translate(83.000000, 4.000000)">
                    <path d="M14.8887338,5.42004698 C15.141217,5.42004698 15.390255,5.43943848 15.640179,5.46685235 C14.9668658,2.33086801 11.6157293,0.00174720358 7.78841834,0.00174720358 C3.51111633,0.00174720358 0.00716107383,2.91664877 0.00716107383,6.61980984 C0.00716107383,8.75661521 1.17212752,10.5111275 3.12035794,11.8740447 L2.34312304,14.2143624 L5.06383893,12.851396 C6.03648993,13.0420626 6.81667785,13.2404318 7.78841834,13.2404318 C8.03278076,13.2404318 8.27495302,13.2293333 8.5137047,13.2112215 C8.36302685,12.6908009 8.27325503,12.1462886 8.27325503,11.5786689 C8.27497763,8.17939821 11.193226,5.42004698 14.8887338,5.42004698 Z M10.7058546,3.31077852 C11.2936779,3.31077852 11.6801544,3.69725503 11.6801544,4.28207606 C11.6801544,4.86480537 11.2936532,5.25517002 10.7058546,5.25517002 C10.1244295,5.25517002 9.53916555,4.86480537 9.53916555,4.28210067 C9.53916555,3.69555705 10.1231253,3.31077852 10.7058546,3.31077852 Z M5.26009172,5.25514541 C4.67610738,5.25514541 4.0882349,4.86478076 4.0882349,4.28207606 C4.0882349,3.69720582 4.67610738,3.31075391 5.26009172,3.31075391 C5.84407606,3.31075391 6.23185682,3.69553244 6.23185682,4.28205145 C6.23185682,4.86478076 5.84410067,5.25514541 5.26009172,5.25514541 Z" id="Shape"></path>
                    <path d="M21.9928635,11.4849843 C21.9928635,8.37437136 18.8788054,5.83910515 15.3817159,5.83910515 C11.678481,5.83910515 8.7640962,8.37611857 8.7640962,11.4849843 C8.7640962,14.6042103 11.680179,17.1317002 15.3817159,17.1317002 C16.1572528,17.1317002 16.938745,16.9376376 17.7168166,16.7426644 L19.8501275,17.9132416 L19.2652573,15.9679642 C20.8274541,14.7940157 21.9928635,13.2404072 21.9928635,11.4849843 Z M13.2354855,10.5111029 C12.8490336,10.5111029 12.4574139,10.1263982 12.4574139,9.73303132 C12.4574139,9.34569351 12.8490582,8.95579642 13.2354855,8.95579642 C13.8263602,8.95579642 14.2094161,9.34569351 14.2094161,9.73303132 C14.2094161,10.1263982 13.8263602,10.5111029 13.2354855,10.5111029 Z M17.5158635,10.5111029 C17.1328076,10.5111029 16.7420492,10.1263982 16.7420492,9.73303132 C16.7420492,9.34569351 17.131085,8.95579642 17.5158635,8.95579642 C18.1015705,8.95579642 18.4897696,9.34569351 18.4897696,9.73303132 C18.4897696,10.1263982 18.1015459,10.5111029 17.5158635,10.5111029 Z" id="Shape"></path>
                </g>
            </g>
        </g>
    </g>
</svg>