<?xml version="1.0" encoding="UTF-8"?>
<svg width="30px" height="30px" viewBox="0 0 30 30" version="1.1" xmlns="http://www.w3.org/2000/svg" xmlns:xlink="http://www.w3.org/1999/xlink">
    <!-- Generator: Sketch 49.1 (51147) - http://www.bohemiancoding.com/sketch -->
    <title>Group 15</title>
    <desc>Created with Sketch.</desc>
    <defs></defs>
    <g id="Symbols" stroke="none" stroke-width="1" fill="none" fill-rule="evenodd">
        <g id="餐厅-copy-6">
            <g id="Group-15" stroke="#D9D9D9" stroke-width="0.5">
                <circle id="Oval-4" cx="15" cy="15" r="14.75"></circle>
            </g>
            <g id="酒吧娱乐" transform="translate(6.000000, 6.000000)" fill="#595959" fill-rule="nonzero">
                <path d="M4.30354734,16.6151457 L5.90424799,17.4826724 L5.90424799,18 L5.63864833,17.8565893 L5.63864833,18 L3.86489146,17.0385225 L2.17167051,18 L2.17167051,17.8496649 L1.90704256,18 L1.90704256,17.4826724 L3.55845701,16.5439695 L3.55845701,10.8858946 L0,10.6346383 L0.051708644,9.9204603 L0.346158717,9.94116444 L0.346158717,4.21094713 L3.34454286,4.43740447 L3.34454286,1.16325091 C1.634479,1.14940214 0.280476014,0.98130748 0.280476014,0.775554283 C0.280476014,0.569778082 1.63450214,0.401591408 3.34454286,0.38771963 L3.34454286,0 L3.77232489,0 L3.77232489,0.388685824 C5.48141703,0.401591408 6.83542003,0.569778082 6.83542003,0.775531279 C6.83542003,0.981284475 5.48141703,1.14937913 3.77232489,1.1632279 L3.77232489,4.47009401 L7.20043447,4.72914888 L7.20043447,6.6521269 C5.66548593,7.50191705 4.60894067,9.1023705 4.53536864,10.9560356 L4.3035242,10.9392653 L4.3035242,16.6151457 L4.30354734,16.6151457 Z M16.0165616,10.882927 L16.0145719,10.882927 L19,10.6346383 L18.9492631,9.92144949 L18.6568027,9.94215364 L18.6568027,4.21094713 L14.1264082,4.58182738 L14.0508234,4.63425488 L14.0209319,4.59073017 L12.3218344,4.73018409 L12.3218344,6.70062061 C13.8140279,7.56221212 14.8346894,9.14094922 14.9063643,10.9619938 L15.5360298,10.9175029 L15.5360298,16.3579542 L13.8846848,17.2967032 L13.8846848,17.8140768 L15.7071658,16.7773512 L17.6171929,17.8140768 L17.6171929,17.2967032 L16.0165616,16.4291765 L16.0165616,10.882927 Z M11.9835419,15.3559196 L12.0870054,15.3559196 L12.0870054,17.9287547 L11.3807139,17.9287547 L11.3807139,15.6379101 C10.8505326,15.8426511 10.2745191,15.9553506 9.66967839,15.9553506 C9.10761584,15.9553506 8.56635242,15.8564538 8.06499837,15.6784442 L8.06499837,17.9287547 L7.35863747,17.9287547 L7.35863747,15.357898 C5.90623767,14.5507584 4.92231588,13.0086906 4.92231588,11.2370599 C4.92231588,8.63054603 7.04826992,6.51766498 9.66866041,6.51766498 C12.290948,6.51766498 14.415861,8.62953382 14.415861,11.2370599 C14.4178507,13.0066662 13.4360342,14.5497692 11.9835419,15.3559196 Z M11.5598086,11.2370599 C11.5598086,10.2003343 10.7131519,9.3576066 9.67065009,9.3576066 C8.62902747,9.3576066 7.78146842,10.2003343 7.78146842,11.2370599 C7.78146842,12.2716921 8.62902747,13.115386 9.67065009,13.115386 C10.7121802,13.1145578 11.5598086,12.2716921 11.5598086,11.2370599 Z M19,3.72718326 L18.9304073,3.30389851 L15.0963328,3.92601207 L18.4976048,1.62621861 L18.2549097,1.2710965 L14.0846249,4.08922975 L13.6220234,4.16445482 L13.6917086,4.58776257 L13.9871535,4.54030407 L14.0199602,4.58974097 L14.1264314,4.58182738 L14.2508329,4.49776855 L19,3.72718326 Z" id="Shape"></path>
            </g>
        </g>
    </g>
</svg>